<?xml version="1.0" encoding="UTF-8" standalone="no"?>
<!DOCTYPE svg PUBLIC "-//W3C//DTD SVG 1.1//EN"
 "http://www.w3.org/Graphics/SVG/1.1/DTD/svg11.dtd">
<!-- Generated by graphviz version 2.40.1 (20161225.0304)
 -->
<!-- Title: %3 Pages: 1 -->
<svg width="258pt" height="219pt"
 viewBox="0.00 0.00 258.00 219.00" xmlns="http://www.w3.org/2000/svg" xmlns:xlink="http://www.w3.org/1999/xlink">
<g id="graph0" class="graph" transform="scale(1 1) rotate(0) translate(4 215)">
<title>%3</title>
<polygon fill="#ffffff" stroke="transparent" points="-4,4 -4,-215 254,-215 254,4 -4,4"/>
<!-- Start -->
<g id="node1" class="node">
<title>Start</title>
<ellipse fill="#000000" stroke="#000000" cx="6" cy="-193" rx="1.8" ry="1.8"/>
</g>
<!-- Initial -->
<g id="node2" class="node">
<title>Initial</title>
<path fill="none" stroke="#000000" d="M93,-211C93,-211 63,-211 63,-211 57,-211 51,-205 51,-199 51,-199 51,-187 51,-187 51,-181 57,-175 63,-175 63,-175 93,-175 93,-175 99,-175 105,-181 105,-187 105,-187 105,-199 105,-199 105,-205 99,-211 93,-211"/>
<text text-anchor="middle" x="78" y="-190.5" font-family="Helvetica,sans-Serif" font-size="10.00" fill="#000000">Initial</text>
</g>
<!-- Start&#45;&gt;Initial -->
<g id="edge1" class="edge">
<title>Start&#45;&gt;Initial</title>
<path fill="none" stroke="#000000" d="M7.9688,-193C18.9297,-193 29.8906,-193 40.8515,-193"/>
<polygon fill="#000000" stroke="#000000" points="40.9176,-196.5001 50.9176,-193 40.9176,-189.5001 40.9176,-196.5001"/>
</g>
<!-- Pilot -->
<g id="node3" class="node">
<title>Pilot</title>
<path fill="none" stroke="#000000" d="M93,-85C93,-85 63,-85 63,-85 57,-85 51,-79 51,-73 51,-73 51,-61 51,-61 51,-55 57,-49 63,-49 63,-49 93,-49 93,-49 99,-49 105,-55 105,-61 105,-61 105,-73 105,-73 105,-79 99,-85 93,-85"/>
<text text-anchor="middle" x="78" y="-64.5" font-family="Helvetica,sans-Serif" font-size="10.00" fill="#000000">Pilot</text>
</g>
<!-- Initial&#45;&gt;Pilot -->
<g id="edge3" class="edge">
<title>Initial&#45;&gt;Pilot</title>
<path fill="none" stroke="#000000" d="M78,-174.9473C78,-154.0823 78,-119.4928 78,-95.1006"/>
<polygon fill="#000000" stroke="#000000" points="81.5001,-95.0192 78,-85.0192 74.5001,-95.0193 81.5001,-95.0192"/>
<text text-anchor="start" x="78" y="-132.6" font-family="Helvetica,sans-Serif" font-size="8.00" fill="#000000"> &#160;pilot()</text>
<text text-anchor="start" x="78" y="-123.6" font-family="Helvetica,sans-Serif" font-size="8.00" fill="#000000"> &#160;count &lt;&#45; 1</text>
</g>
<!-- Value -->
<g id="node5" class="node">
<title>Value</title>
<path fill="none" stroke="#000000" d="M238,-211C238,-211 208,-211 208,-211 202,-211 196,-205 196,-199 196,-199 196,-187 196,-187 196,-181 202,-175 208,-175 208,-175 238,-175 238,-175 244,-175 250,-181 250,-187 250,-187 250,-199 250,-199 250,-205 244,-211 238,-211"/>
<text text-anchor="middle" x="223" y="-190.5" font-family="Helvetica,sans-Serif" font-size="10.00" fill="#000000">Value</text>
</g>
<!-- Initial&#45;&gt;Value -->
<g id="edge2" class="edge">
<title>Initial&#45;&gt;Value</title>
<path fill="none" stroke="#000000" d="M105.2734,-193C127.9566,-193 160.4742,-193 185.589,-193"/>
<polygon fill="#000000" stroke="#000000" points="185.8489,-196.5001 195.8489,-193 185.8489,-189.5001 185.8489,-196.5001"/>
<text text-anchor="middle" x="150.5" y="-198.6" font-family="Helvetica,sans-Serif" font-size="8.00" fill="#000000">value()</text>
</g>
<!-- Pilot&#45;&gt;Pilot -->
<g id="edge4" class="edge">
<title>Pilot:w&#45;&gt;Pilot:w</title>
<path fill="none" stroke="#000000" d="M51,-67C43.6667,-82.5 29,-82.5 29,-67 29,-55.1328 37.5973,-52.3514 44.9185,-58.6559"/>
<polygon fill="#000000" stroke="#000000" points="42.2815,-60.9801 51,-67 47.9385,-56.8571 42.2815,-60.9801"/>
<text text-anchor="start" x="0" y="-65.1" font-family="Helvetica,sans-Serif" font-size="8.00" fill="#000000">pilot()</text>
<text text-anchor="start" x="0" y="-56.1" font-family="Helvetica,sans-Serif" font-size="8.00" fill="#000000">++count</text>
</g>
<!-- Pilot&#45;&gt;Pilot -->
<g id="edge5" class="edge">
<title>Pilot:s&#45;&gt;Pilot:s</title>
<path fill="none" stroke="#000000" d="M78,-49C89,-38.6667 89,-18 78,-18 69.4922,-18 67.5646,-30.3629 72.2173,-40.7458"/>
<polygon fill="#000000" stroke="#000000" points="69.3956,-42.8181 78,-49 75.1287,-38.8016 69.3956,-42.8181"/>
<text text-anchor="start" x="46" y="-11.6" font-family="Helvetica,sans-Serif" font-size="8.00" fill="#000000">grad() if count &gt; 1</text>
<text text-anchor="start" x="46" y="-2.6" font-family="Helvetica,sans-Serif" font-size="8.00" fill="#000000">&#45;&#45;count</text>
</g>
<!-- Gradient -->
<g id="node4" class="node">
<title>Gradient</title>
<path fill="none" stroke="#000000" d="M238,-85C238,-85 208,-85 208,-85 202,-85 196,-79 196,-73 196,-73 196,-61 196,-61 196,-55 202,-49 208,-49 208,-49 238,-49 238,-49 244,-49 250,-55 250,-61 250,-61 250,-73 250,-73 250,-79 244,-85 238,-85"/>
<text text-anchor="middle" x="223" y="-64.5" font-family="Helvetica,sans-Serif" font-size="10.00" fill="#000000">Gradient</text>
</g>
<!-- Pilot&#45;&gt;Gradient -->
<g id="edge6" class="edge">
<title>Pilot&#45;&gt;Gradient</title>
<path fill="none" stroke="#000000" d="M105.2734,-67C127.9566,-67 160.4742,-67 185.589,-67"/>
<polygon fill="#000000" stroke="#000000" points="185.8489,-70.5001 195.8489,-67 185.8489,-63.5001 185.8489,-70.5001"/>
<text text-anchor="start" x="116" y="-81.6" font-family="Helvetica,sans-Serif" font-size="8.00" fill="#000000">grad() if count == 1</text>
<text text-anchor="start" x="116" y="-72.6" font-family="Helvetica,sans-Serif" font-size="8.00" fill="#000000">&#45;&#45;count</text>
</g>
<!-- Pilot&#45;&gt;Value -->
<g id="edge7" class="edge">
<title>Pilot&#45;&gt;Value</title>
<path fill="none" stroke="#000000" d="M98.7364,-85.0192C123.8067,-106.8045 166.1356,-143.5868 194.3217,-168.0796"/>
<polygon fill="#000000" stroke="#000000" points="192.381,-171.0299 202.225,-174.9473 196.9725,-165.7461 192.381,-171.0299"/>
<text text-anchor="middle" x="172.5" y="-128.1" font-family="Helvetica,sans-Serif" font-size="8.00" fill="#000000">value()</text>
</g>
<!-- Gradient&#45;&gt;Pilot -->
<g id="edge8" class="edge">
<title>Gradient&#45;&gt;Pilot</title>
<path fill="none" stroke="#000000" d="M195.8313,-54.1775C187.4207,-50.8292 177.9967,-47.6878 169,-46 152.8375,-42.9679 148.1625,-42.9679 132,-46 126.2365,-47.0812 120.2976,-48.759 114.5622,-50.7056"/>
<polygon fill="#000000" stroke="#000000" points="113.3351,-47.4277 105.1687,-54.1775 115.762,-53.9936 113.3351,-47.4277"/>
<text text-anchor="start" x="132" y="-57.6" font-family="Helvetica,sans-Serif" font-size="8.00" fill="#000000">move()</text>
<text text-anchor="start" x="132" y="-48.6" font-family="Helvetica,sans-Serif" font-size="8.00" fill="#000000">count &lt;&#45; 1</text>
</g>
<!-- Gradient&#45;&gt;Value -->
<g id="edge9" class="edge">
<title>Gradient&#45;&gt;Value</title>
<path fill="none" stroke="#000000" d="M223,-85.0192C223,-105.8695 223,-140.4571 223,-164.8602"/>
<polygon fill="#000000" stroke="#000000" points="219.5001,-164.9472 223,-174.9473 226.5001,-164.9473 219.5001,-164.9472"/>
<text text-anchor="middle" x="235.5" y="-128.1" font-family="Helvetica,sans-Serif" font-size="8.00" fill="#000000">value()</text>
</g>
</g>
</svg>
