<?xml version="1.0" encoding="UTF-8" standalone="no"?>
<!DOCTYPE svg PUBLIC "-//W3C//DTD SVG 1.1//EN"
 "http://www.w3.org/Graphics/SVG/1.1/DTD/svg11.dtd">
<!-- Generated by graphviz version 2.40.1 (20161225.0304)
 -->
<!-- Title: %3 Pages: 1 -->
<svg width="347pt" height="116pt"
 viewBox="0.00 0.00 346.50 116.00" xmlns="http://www.w3.org/2000/svg" xmlns:xlink="http://www.w3.org/1999/xlink">
<g id="graph0" class="graph" transform="scale(1 1) rotate(0) translate(4 112)">
<title>%3</title>
<polygon fill="#ffffff" stroke="transparent" points="-4,4 -4,-112 342.5,-112 342.5,4 -4,4"/>
<!-- ParticleFilter -->
<g id="node1" class="node">
<title>ParticleFilter</title>
<g id="a_node1"><a xlink:href="../classes/ParticleFilter/" xlink:title="ParticleFilter" target="_top">
<polygon fill="none" stroke="#000000" points="190,-108 121,-108 121,-72 190,-72 190,-108"/>
<text text-anchor="middle" x="155.5" y="-87.5" font-family="Helvetica,sans-Serif" font-size="10.00" fill="#000000">ParticleFilter</text>
</a>
</g>
</g>
<!-- AliveParticleFilter -->
<g id="node2" class="node">
<title>AliveParticleFilter</title>
<g id="a_node2"><a xlink:href="../classes/AliveParticleFilter/" xlink:title="AliveParticleFilter" target="_top">
<polygon fill="none" stroke="#000000" points="91,-36 0,-36 0,0 91,0 91,-36"/>
<text text-anchor="middle" x="45.5" y="-15.5" font-family="Helvetica,sans-Serif" font-size="10.00" fill="#000000">AliveParticleFilter</text>
</a>
</g>
</g>
<!-- AliveParticleFilter&#45;&gt;ParticleFilter -->
<g id="edge1" class="edge">
<title>AliveParticleFilter&#45;&gt;ParticleFilter</title>
<path fill="none" stroke="#000000" d="M45.5,-36.1686C45.5,-57.498 45.5,-90 45.5,-90 45.5,-90 110.9971,-90 110.9971,-90"/>
<polygon fill="none" stroke="#000000" points="110.9972,-93.5001 120.9971,-90 110.9971,-86.5001 110.9972,-93.5001"/>
</g>
<!-- MoveParticleFilter -->
<g id="node3" class="node">
<title>MoveParticleFilter</title>
<g id="a_node3"><a xlink:href="../classes/MoveParticleFilter/" xlink:title="MoveParticleFilter" target="_top">
<polygon fill="none" stroke="#000000" points="202,-36 109,-36 109,0 202,0 202,-36"/>
<text text-anchor="middle" x="155.5" y="-15.5" font-family="Helvetica,sans-Serif" font-size="10.00" fill="#000000">MoveParticleFilter</text>
</a>
</g>
</g>
<!-- MoveParticleFilter&#45;&gt;ParticleFilter -->
<g id="edge2" class="edge">
<title>MoveParticleFilter&#45;&gt;ParticleFilter</title>
<path fill="none" stroke="#000000" d="M155.5,-36.1686C155.5,-36.1686 155.5,-61.5867 155.5,-61.5867"/>
<polygon fill="none" stroke="#000000" points="152.0001,-61.5867 155.5,-71.5867 159.0001,-61.5868 152.0001,-61.5867"/>
</g>
<!-- ConditionalParticleFilter -->
<g id="node4" class="node">
<title>ConditionalParticleFilter</title>
<g id="a_node4"><a xlink:href="../classes/ConditionalParticleFilter/" xlink:title="ConditionalParticleFilter" target="_top">
<polygon fill="none" stroke="#000000" points="338.5,-36 220.5,-36 220.5,0 338.5,0 338.5,-36"/>
<text text-anchor="middle" x="279.5" y="-15.5" font-family="Helvetica,sans-Serif" font-size="10.00" fill="#000000">ConditionalParticleFilter</text>
</a>
</g>
</g>
<!-- ConditionalParticleFilter&#45;&gt;ParticleFilter -->
<g id="edge3" class="edge">
<title>ConditionalParticleFilter&#45;&gt;ParticleFilter</title>
<path fill="none" stroke="#000000" d="M279.5,-36.1686C279.5,-57.498 279.5,-90 279.5,-90 279.5,-90 200.0409,-90 200.0409,-90"/>
<polygon fill="none" stroke="#000000" points="200.0409,-86.5001 190.0409,-90 200.0409,-93.5001 200.0409,-86.5001"/>
</g>
</g>
</svg>
