<?xml version="1.0" encoding="UTF-8" standalone="no"?>
<!DOCTYPE svg PUBLIC "-//W3C//DTD SVG 1.1//EN"
 "http://www.w3.org/Graphics/SVG/1.1/DTD/svg11.dtd">
<!-- Generated by graphviz version 2.40.1 (20161225.0304)
 -->
<!-- Title: %3 Pages: 1 -->
<svg width="236pt" height="116pt"
 viewBox="0.00 0.00 235.50 116.00" xmlns="http://www.w3.org/2000/svg" xmlns:xlink="http://www.w3.org/1999/xlink">
<g id="graph0" class="graph" transform="scale(1 1) rotate(0) translate(4 112)">
<title>%3</title>
<polygon fill="#ffffff" stroke="transparent" points="-4,4 -4,-112 231.5,-112 231.5,4 -4,4"/>
<!-- ParticleFilter -->
<g id="node1" class="node">
<title>ParticleFilter</title>
<g id="a_node1"><a xlink:href="../classes/ParticleFilter/" xlink:title="ParticleFilter" target="_top">
<polygon fill="none" stroke="#000000" points="141,-108 72,-108 72,-72 141,-72 141,-108"/>
<text text-anchor="middle" x="106.5" y="-87.5" font-family="Helvetica,sans-Serif" font-size="10.00" fill="#000000">ParticleFilter</text>
</a>
</g>
</g>
<!-- AliveParticleFilter -->
<g id="node2" class="node">
<title>AliveParticleFilter</title>
<g id="a_node2"><a xlink:href="../classes/AliveParticleFilter/" xlink:title="AliveParticleFilter" target="_top">
<polygon fill="none" stroke="#000000" points="91,-36 0,-36 0,0 91,0 91,-36"/>
<text text-anchor="middle" x="45.5" y="-15.5" font-family="Helvetica,sans-Serif" font-size="10.00" fill="#000000">AliveParticleFilter</text>
</a>
</g>
</g>
<!-- AliveParticleFilter&#45;&gt;ParticleFilter -->
<g id="edge1" class="edge">
<title>AliveParticleFilter&#45;&gt;ParticleFilter</title>
<path fill="none" stroke="#000000" d="M81.5,-36.1686C81.5,-36.1686 81.5,-61.5867 81.5,-61.5867"/>
<polygon fill="none" stroke="#000000" points="78.0001,-61.5867 81.5,-71.5867 85.0001,-61.5868 78.0001,-61.5867"/>
</g>
<!-- ConditionalParticleFilter -->
<g id="node3" class="node">
<title>ConditionalParticleFilter</title>
<g id="a_node3"><a xlink:href="../classes/ConditionalParticleFilter/" xlink:title="ConditionalParticleFilter" target="_top">
<polygon fill="none" stroke="#000000" points="227.5,-36 109.5,-36 109.5,0 227.5,0 227.5,-36"/>
<text text-anchor="middle" x="168.5" y="-15.5" font-family="Helvetica,sans-Serif" font-size="10.00" fill="#000000">ConditionalParticleFilter</text>
</a>
</g>
</g>
<!-- ConditionalParticleFilter&#45;&gt;ParticleFilter -->
<g id="edge2" class="edge">
<title>ConditionalParticleFilter&#45;&gt;ParticleFilter</title>
<path fill="none" stroke="#000000" d="M125.25,-36.1686C125.25,-36.1686 125.25,-61.5867 125.25,-61.5867"/>
<polygon fill="none" stroke="#000000" points="121.7501,-61.5867 125.25,-71.5867 128.7501,-61.5868 121.7501,-61.5867"/>
</g>
</g>
</svg>
