<?xml version="1.0" encoding="UTF-8" standalone="no"?>
<!DOCTYPE svg PUBLIC "-//W3C//DTD SVG 1.1//EN"
 "http://www.w3.org/Graphics/SVG/1.1/DTD/svg11.dtd">
<!-- Generated by graphviz version 2.40.1 (20161225.0304)
 -->
<!-- Title: %3 Pages: 1 -->
<svg width="512pt" height="260pt"
 viewBox="0.00 0.00 511.50 260.00" xmlns="http://www.w3.org/2000/svg" xmlns:xlink="http://www.w3.org/1999/xlink">
<g id="graph0" class="graph" transform="scale(1 1) rotate(0) translate(4 256)">
<title>%3</title>
<polygon fill="#ffffff" stroke="transparent" points="-4,4 -4,-256 507.5,-256 507.5,4 -4,4"/>
<!-- Handler -->
<g id="node1" class="node">
<title>Handler</title>
<g id="a_node1"><a xlink:href="../classes/Handler/" xlink:title="Handler" target="_top">
<polygon fill="none" stroke="#000000" points="215,-252 161,-252 161,-216 215,-216 215,-252"/>
<text text-anchor="middle" x="188" y="-231.5" font-family="Helvetica,sans-Serif" font-size="10.00" fill="#000000">Handler</text>
</a>
</g>
</g>
<!-- PlayHandler -->
<g id="node2" class="node">
<title>PlayHandler</title>
<g id="a_node2"><a xlink:href="../classes/PlayHandler/" xlink:title="PlayHandler" target="_top">
<polygon fill="none" stroke="#000000" points="68,-180 0,-180 0,-144 68,-144 68,-180"/>
<text text-anchor="middle" x="34" y="-159.5" font-family="Helvetica,sans-Serif" font-size="10.00" fill="#000000">PlayHandler</text>
</a>
</g>
</g>
<!-- PlayHandler&#45;&gt;Handler -->
<g id="edge1" class="edge">
<title>PlayHandler&#45;&gt;Handler</title>
<path fill="none" stroke="#000000" d="M34,-180.1686C34,-201.498 34,-234 34,-234 34,-234 150.8224,-234 150.8224,-234"/>
<polygon fill="none" stroke="#000000" points="150.8224,-237.5001 160.8224,-234 150.8224,-230.5001 150.8224,-237.5001"/>
</g>
<!-- PlayDelayHandler -->
<g id="node3" class="node">
<title>PlayDelayHandler</title>
<g id="a_node3"><a xlink:href="../classes/PlayDelayHandler/" xlink:title="PlayDelayHandler" target="_top">
<polygon fill="none" stroke="#000000" points="179.5,-180 86.5,-180 86.5,-144 179.5,-144 179.5,-180"/>
<text text-anchor="middle" x="133" y="-159.5" font-family="Helvetica,sans-Serif" font-size="10.00" fill="#000000">PlayDelayHandler</text>
</a>
</g>
</g>
<!-- PlayDelayHandler&#45;&gt;Handler -->
<g id="edge2" class="edge">
<title>PlayDelayHandler&#45;&gt;Handler</title>
<path fill="none" stroke="#000000" d="M170.25,-180.1686C170.25,-180.1686 170.25,-205.5867 170.25,-205.5867"/>
<polygon fill="none" stroke="#000000" points="166.7501,-205.5867 170.25,-215.5867 173.7501,-205.5868 166.7501,-205.5867"/>
</g>
<!-- PlayMoveHandler -->
<g id="node4" class="node">
<title>PlayMoveHandler</title>
<g id="a_node4"><a xlink:href="../classes/PlayMoveHandler/" xlink:title="PlayMoveHandler" target="_top">
<polygon fill="none" stroke="#000000" points="290,-180 198,-180 198,-144 290,-144 290,-180"/>
<text text-anchor="middle" x="244" y="-159.5" font-family="Helvetica,sans-Serif" font-size="10.00" fill="#000000">PlayMoveHandler</text>
</a>
</g>
</g>
<!-- PlayMoveHandler&#45;&gt;Handler -->
<g id="edge3" class="edge">
<title>PlayMoveHandler&#45;&gt;Handler</title>
<path fill="none" stroke="#000000" d="M206.5,-180.1686C206.5,-180.1686 206.5,-205.5867 206.5,-205.5867"/>
<polygon fill="none" stroke="#000000" points="203.0001,-205.5867 206.5,-215.5867 210.0001,-205.5868 203.0001,-205.5867"/>
</g>
<!-- PlayDelayMoveHandler -->
<g id="node5" class="node">
<title>PlayDelayMoveHandler</title>
<g id="a_node5"><a xlink:href="../classes/PlayDelayMoveHandler/" xlink:title="PlayDelayMoveHandler" target="_top">
<polygon fill="none" stroke="#000000" points="425.5,-180 308.5,-180 308.5,-144 425.5,-144 425.5,-180"/>
<text text-anchor="middle" x="367" y="-159.5" font-family="Helvetica,sans-Serif" font-size="10.00" fill="#000000">PlayDelayMoveHandler</text>
</a>
</g>
</g>
<!-- PlayDelayMoveHandler&#45;&gt;Handler -->
<g id="edge4" class="edge">
<title>PlayDelayMoveHandler&#45;&gt;Handler</title>
<path fill="none" stroke="#000000" d="M367,-180.1686C367,-201.498 367,-234 367,-234 367,-234 225.1862,-234 225.1862,-234"/>
<polygon fill="none" stroke="#000000" points="225.1863,-230.5001 215.1862,-234 225.1862,-237.5001 225.1863,-230.5001"/>
</g>
<!-- TraceHandler -->
<g id="node6" class="node">
<title>TraceHandler</title>
<g id="a_node6"><a xlink:href="../classes/TraceHandler/" xlink:title="TraceHandler" target="_top">
<polygon fill="none" stroke="#000000" points="280.5,-108 207.5,-108 207.5,-72 280.5,-72 280.5,-108"/>
<text text-anchor="middle" x="244" y="-87.5" font-family="Helvetica,sans-Serif" font-size="10.00" fill="#000000">TraceHandler</text>
</a>
</g>
</g>
<!-- TraceHandler&#45;&gt;PlayMoveHandler -->
<!-- ReplayHandler -->
<g id="node7" class="node">
<title>ReplayHandler</title>
<g id="a_node7"><a xlink:href="../classes/ReplayHandler/" xlink:title="ReplayHandler" target="_top">
<polygon fill="none" stroke="#000000" points="112.5,-36 33.5,-36 33.5,0 112.5,0 112.5,-36"/>
<text text-anchor="middle" x="73" y="-15.5" font-family="Helvetica,sans-Serif" font-size="10.00" fill="#000000">ReplayHandler</text>
</a>
</g>
</g>
<!-- ReplayHandler&#45;&gt;TraceHandler -->
<g id="edge5" class="edge">
<title>ReplayHandler&#45;&gt;TraceHandler</title>
<path fill="none" stroke="#000000" d="M99.5,-36.1686C99.5,-57.498 99.5,-90 99.5,-90 99.5,-90 197.1627,-90 197.1627,-90"/>
<polygon fill="none" stroke="#000000" points="197.1627,-93.5001 207.1627,-90 197.1626,-86.5001 197.1627,-93.5001"/>
</g>
<!-- ReplayDelayHandler -->
<g id="node8" class="node">
<title>ReplayDelayHandler</title>
<g id="a_node8"><a xlink:href="../classes/ReplayDelayHandler/" xlink:title="ReplayDelayHandler" target="_top">
<polygon fill="none" stroke="#000000" points="235.5,-36 130.5,-36 130.5,0 235.5,0 235.5,-36"/>
<text text-anchor="middle" x="183" y="-15.5" font-family="Helvetica,sans-Serif" font-size="10.00" fill="#000000">ReplayDelayHandler</text>
</a>
</g>
</g>
<!-- ReplayDelayHandler&#45;&gt;TraceHandler -->
<g id="edge6" class="edge">
<title>ReplayDelayHandler&#45;&gt;TraceHandler</title>
<path fill="none" stroke="#000000" d="M221.5,-36.1686C221.5,-36.1686 221.5,-61.5867 221.5,-61.5867"/>
<polygon fill="none" stroke="#000000" points="218.0001,-61.5867 221.5,-71.5867 225.0001,-61.5868 218.0001,-61.5867"/>
</g>
<!-- ReplayMoveHandler -->
<g id="node9" class="node">
<title>ReplayMoveHandler</title>
<g id="a_node9"><a xlink:href="../classes/ReplayMoveHandler/" xlink:title="ReplayMoveHandler" target="_top">
<polygon fill="none" stroke="#000000" points="356.5,-36 253.5,-36 253.5,0 356.5,0 356.5,-36"/>
<text text-anchor="middle" x="305" y="-15.5" font-family="Helvetica,sans-Serif" font-size="10.00" fill="#000000">ReplayMoveHandler</text>
</a>
</g>
</g>
<!-- ReplayMoveHandler&#45;&gt;TraceHandler -->
<g id="edge7" class="edge">
<title>ReplayMoveHandler&#45;&gt;TraceHandler</title>
<path fill="none" stroke="#000000" d="M267,-36.1686C267,-36.1686 267,-61.5867 267,-61.5867"/>
<polygon fill="none" stroke="#000000" points="263.5001,-61.5867 267,-71.5867 270.5001,-61.5868 263.5001,-61.5867"/>
</g>
<!-- ReplayDelayMoveHandler -->
<g id="node10" class="node">
<title>ReplayDelayMoveHandler</title>
<g id="a_node10"><a xlink:href="../classes/ReplayDelayMoveHandler/" xlink:title="ReplayDelayMoveHandler" target="_top">
<polygon fill="none" stroke="#000000" points="503.5,-36 374.5,-36 374.5,0 503.5,0 503.5,-36"/>
<text text-anchor="middle" x="439" y="-15.5" font-family="Helvetica,sans-Serif" font-size="10.00" fill="#000000">ReplayDelayMoveHandler</text>
</a>
</g>
</g>
<!-- ReplayDelayMoveHandler&#45;&gt;TraceHandler -->
<g id="edge8" class="edge">
<title>ReplayDelayMoveHandler&#45;&gt;TraceHandler</title>
<path fill="none" stroke="#000000" d="M400,-36.1686C400,-57.498 400,-90 400,-90 400,-90 290.5751,-90 290.5751,-90"/>
<polygon fill="none" stroke="#000000" points="290.5751,-86.5001 280.5751,-90 290.575,-93.5001 290.5751,-86.5001"/>
</g>
</g>
</svg>
