<?xml version="1.0" encoding="UTF-8" standalone="no"?>
<!DOCTYPE svg PUBLIC "-//W3C//DTD SVG 1.1//EN"
 "http://www.w3.org/Graphics/SVG/1.1/DTD/svg11.dtd">
<!-- Generated by graphviz version 2.40.1 (20161225.0304)
 -->
<!-- Title: %3 Pages: 1 -->
<svg width="669pt" height="116pt"
 viewBox="0.00 0.00 669.00 116.00" xmlns="http://www.w3.org/2000/svg" xmlns:xlink="http://www.w3.org/1999/xlink">
<g id="graph0" class="graph" transform="scale(1 1) rotate(0) translate(4 112)">
<title>%3</title>
<polygon fill="#ffffff" stroke="transparent" points="-4,4 -4,-112 665,-112 665,4 -4,4"/>
<!-- Handler -->
<g id="node1" class="node">
<title>Handler</title>
<g id="a_node1"><a xlink:href="../classes/Handler/" xlink:title="Handler" target="_top">
<polygon fill="none" stroke="#000000" points="106,-108 52,-108 52,-72 106,-72 106,-108"/>
<text text-anchor="middle" x="79" y="-87.5" font-family="Helvetica,sans-Serif" font-size="10.00" fill="#000000">Handler</text>
</a>
</g>
</g>
<!-- PlayHandler -->
<g id="node2" class="node">
<title>PlayHandler</title>
<g id="a_node2"><a xlink:href="../classes/PlayHandler/" xlink:title="PlayHandler" target="_top">
<polygon fill="none" stroke="#000000" points="68,-36 0,-36 0,0 68,0 68,-36"/>
<text text-anchor="middle" x="34" y="-15.5" font-family="Helvetica,sans-Serif" font-size="10.00" fill="#000000">PlayHandler</text>
</a>
</g>
</g>
<!-- PlayHandler&#45;&gt;Handler -->
<g id="edge1" class="edge">
<title>PlayHandler&#45;&gt;Handler</title>
<path fill="none" stroke="#000000" d="M60,-36.1686C60,-36.1686 60,-61.5867 60,-61.5867"/>
<polygon fill="none" stroke="#000000" points="56.5001,-61.5867 60,-71.5867 63.5001,-61.5868 56.5001,-61.5867"/>
</g>
<!-- DelayHandler -->
<g id="node3" class="node">
<title>DelayHandler</title>
<g id="a_node3"><a xlink:href="../classes/DelayHandler/" xlink:title="DelayHandler" target="_top">
<polygon fill="none" stroke="#000000" points="160,-36 86,-36 86,0 160,0 160,-36"/>
<text text-anchor="middle" x="123" y="-15.5" font-family="Helvetica,sans-Serif" font-size="10.00" fill="#000000">DelayHandler</text>
</a>
</g>
</g>
<!-- DelayHandler&#45;&gt;Handler -->
<g id="edge2" class="edge">
<title>DelayHandler&#45;&gt;Handler</title>
<path fill="none" stroke="#000000" d="M96,-36.1686C96,-36.1686 96,-61.5867 96,-61.5867"/>
<polygon fill="none" stroke="#000000" points="92.5001,-61.5867 96,-71.5867 99.5001,-61.5868 92.5001,-61.5867"/>
</g>
<!-- TraceHandler -->
<g id="node4" class="node">
<title>TraceHandler</title>
<g id="a_node4"><a xlink:href="../classes/TraceHandler/" xlink:title="TraceHandler" target="_top">
<polygon fill="none" stroke="#000000" points="451.5,-108 378.5,-108 378.5,-72 451.5,-72 451.5,-108"/>
<text text-anchor="middle" x="415" y="-87.5" font-family="Helvetica,sans-Serif" font-size="10.00" fill="#000000">TraceHandler</text>
</a>
</g>
</g>
<!-- ReplayHandler -->
<g id="node5" class="node">
<title>ReplayHandler</title>
<g id="a_node5"><a xlink:href="../classes/ReplayHandler/" xlink:title="ReplayHandler" target="_top">
<polygon fill="none" stroke="#000000" points="257.5,-36 178.5,-36 178.5,0 257.5,0 257.5,-36"/>
<text text-anchor="middle" x="218" y="-15.5" font-family="Helvetica,sans-Serif" font-size="10.00" fill="#000000">ReplayHandler</text>
</a>
</g>
</g>
<!-- ReplayHandler&#45;&gt;TraceHandler -->
<g id="edge3" class="edge">
<title>ReplayHandler&#45;&gt;TraceHandler</title>
<path fill="none" stroke="#000000" d="M218,-36.0908C218,-59.1328 218,-96 218,-96 218,-96 368.4075,-96 368.4075,-96"/>
<polygon fill="none" stroke="#000000" points="368.4075,-99.5001 378.4075,-96 368.4075,-92.5001 368.4075,-99.5001"/>
</g>
<!-- UnplayHandler -->
<g id="node6" class="node">
<title>UnplayHandler</title>
<g id="a_node6"><a xlink:href="../classes/UnplayHandler/" xlink:title="UnplayHandler" target="_top">
<polygon fill="none" stroke="#000000" points="354.5,-36 275.5,-36 275.5,0 354.5,0 354.5,-36"/>
<text text-anchor="middle" x="315" y="-15.5" font-family="Helvetica,sans-Serif" font-size="10.00" fill="#000000">UnplayHandler</text>
</a>
</g>
</g>
<!-- UnplayHandler&#45;&gt;TraceHandler -->
<g id="edge4" class="edge">
<title>UnplayHandler&#45;&gt;TraceHandler</title>
<path fill="none" stroke="#000000" d="M315,-36.0348C315,-55.5762 315,-84 315,-84 315,-84 368.3315,-84 368.3315,-84"/>
<polygon fill="none" stroke="#000000" points="368.3316,-87.5001 378.3315,-84 368.3315,-80.5001 368.3316,-87.5001"/>
</g>
<!-- RedelayHandler -->
<g id="node7" class="node">
<title>RedelayHandler</title>
<g id="a_node7"><a xlink:href="../classes/RedelayHandler/" xlink:title="RedelayHandler" target="_top">
<polygon fill="none" stroke="#000000" points="457,-36 373,-36 373,0 457,0 457,-36"/>
<text text-anchor="middle" x="415" y="-15.5" font-family="Helvetica,sans-Serif" font-size="10.00" fill="#000000">RedelayHandler</text>
</a>
</g>
</g>
<!-- RedelayHandler&#45;&gt;TraceHandler -->
<g id="edge5" class="edge">
<title>RedelayHandler&#45;&gt;TraceHandler</title>
<path fill="none" stroke="#000000" d="M415,-36.1686C415,-36.1686 415,-61.5867 415,-61.5867"/>
<polygon fill="none" stroke="#000000" points="411.5001,-61.5867 415,-71.5867 418.5001,-61.5868 411.5001,-61.5867"/>
</g>
<!-- UndelayHandler -->
<g id="node8" class="node">
<title>UndelayHandler</title>
<g id="a_node8"><a xlink:href="../classes/UndelayHandler/" xlink:title="UndelayHandler" target="_top">
<polygon fill="none" stroke="#000000" points="559,-36 475,-36 475,0 559,0 559,-36"/>
<text text-anchor="middle" x="517" y="-15.5" font-family="Helvetica,sans-Serif" font-size="10.00" fill="#000000">UndelayHandler</text>
</a>
</g>
</g>
<!-- UndelayHandler&#45;&gt;TraceHandler -->
<g id="edge6" class="edge">
<title>UndelayHandler&#45;&gt;TraceHandler</title>
<path fill="none" stroke="#000000" d="M517,-36.0348C517,-55.5762 517,-84 517,-84 517,-84 461.5362,-84 461.5362,-84"/>
<polygon fill="none" stroke="#000000" points="461.5363,-80.5001 451.5362,-84 461.5362,-87.5001 461.5363,-80.5001"/>
</g>
<!-- ProposeHandler -->
<g id="node9" class="node">
<title>ProposeHandler</title>
<g id="a_node9"><a xlink:href="../classes/ProposeHandler/" xlink:title="ProposeHandler" target="_top">
<polygon fill="none" stroke="#000000" points="661,-36 577,-36 577,0 661,0 661,-36"/>
<text text-anchor="middle" x="619" y="-15.5" font-family="Helvetica,sans-Serif" font-size="10.00" fill="#000000">ProposeHandler</text>
</a>
</g>
</g>
<!-- ProposeHandler&#45;&gt;TraceHandler -->
<g id="edge7" class="edge">
<title>ProposeHandler&#45;&gt;TraceHandler</title>
<path fill="none" stroke="#000000" d="M619,-36.0908C619,-59.1328 619,-96 619,-96 619,-96 461.9429,-96 461.9429,-96"/>
<polygon fill="none" stroke="#000000" points="461.9429,-92.5001 451.9429,-96 461.9428,-99.5001 461.9429,-92.5001"/>
</g>
</g>
</svg>
