<?xml version="1.0" encoding="UTF-8" standalone="no"?>
<!DOCTYPE svg PUBLIC "-//W3C//DTD SVG 1.1//EN"
 "http://www.w3.org/Graphics/SVG/1.1/DTD/svg11.dtd">
<!-- Generated by graphviz version 2.40.1 (20161225.0304)
 -->
<!-- Title: %3 Pages: 1 -->
<svg width="401pt" height="188pt"
 viewBox="0.00 0.00 400.50 188.00" xmlns="http://www.w3.org/2000/svg" xmlns:xlink="http://www.w3.org/1999/xlink">
<g id="graph0" class="graph" transform="scale(1 1) rotate(0) translate(4 184)">
<title>%3</title>
<polygon fill="#ffffff" stroke="transparent" points="-4,4 -4,-184 396.5,-184 396.5,4 -4,4"/>
<!-- Handler -->
<g id="node1" class="node">
<title>Handler</title>
<g id="a_node1"><a xlink:href="../classes/Handler/" xlink:title="Handler" target="_top">
<polygon fill="none" stroke="#000000" points="235,-180 181,-180 181,-144 235,-144 235,-180"/>
<text text-anchor="middle" x="208" y="-159.5" font-family="Helvetica,sans-Serif" font-size="10.00" fill="#000000">Handler</text>
</a>
</g>
</g>
<!-- ImmediateHandler -->
<g id="node2" class="node">
<title>ImmediateHandler</title>
<g id="a_node2"><a xlink:href="../classes/ImmediateHandler/" xlink:title="ImmediateHandler" target="_top">
<polygon fill="none" stroke="#000000" points="96,-108 0,-108 0,-72 96,-72 96,-108"/>
<text text-anchor="middle" x="48" y="-87.5" font-family="Helvetica,sans-Serif" font-size="10.00" fill="#000000">ImmediateHandler</text>
</a>
</g>
</g>
<!-- ImmediateHandler&#45;&gt;Handler -->
<g id="edge1" class="edge">
<title>ImmediateHandler&#45;&gt;Handler</title>
<path fill="none" stroke="#000000" d="M48,-108.1686C48,-129.498 48,-162 48,-162 48,-162 170.8582,-162 170.8582,-162"/>
<polygon fill="none" stroke="#000000" points="170.8582,-165.5001 180.8582,-162 170.8581,-158.5001 170.8582,-165.5001"/>
</g>
<!-- DelayedHandler -->
<g id="node3" class="node">
<title>DelayedHandler</title>
<g id="a_node3"><a xlink:href="../classes/DelayedHandler/" xlink:title="DelayedHandler" target="_top">
<polygon fill="none" stroke="#000000" points="200,-108 114,-108 114,-72 200,-72 200,-108"/>
<text text-anchor="middle" x="157" y="-87.5" font-family="Helvetica,sans-Serif" font-size="10.00" fill="#000000">DelayedHandler</text>
</a>
</g>
</g>
<!-- DelayedHandler&#45;&gt;Handler -->
<g id="edge2" class="edge">
<title>DelayedHandler&#45;&gt;Handler</title>
<path fill="none" stroke="#000000" d="M190.5,-108.1686C190.5,-108.1686 190.5,-133.5867 190.5,-133.5867"/>
<polygon fill="none" stroke="#000000" points="187.0001,-133.5867 190.5,-143.5867 194.0001,-133.5868 187.0001,-133.5867"/>
</g>
<!-- ReplayHandler -->
<g id="node4" class="node">
<title>ReplayHandler</title>
<g id="a_node4"><a xlink:href="../classes/ReplayHandler/" xlink:title="ReplayHandler" target="_top">
<polygon fill="none" stroke="#000000" points="299.5,-108 218.5,-108 218.5,-72 299.5,-72 299.5,-108"/>
<text text-anchor="middle" x="259" y="-87.5" font-family="Helvetica,sans-Serif" font-size="10.00" fill="#000000">ReplayHandler</text>
</a>
</g>
</g>
<!-- ReplayHandler&#45;&gt;Handler -->
<g id="edge3" class="edge">
<title>ReplayHandler&#45;&gt;Handler</title>
<path fill="none" stroke="#000000" d="M226.75,-108.1686C226.75,-108.1686 226.75,-133.5867 226.75,-133.5867"/>
<polygon fill="none" stroke="#000000" points="223.2501,-133.5867 226.75,-143.5867 230.2501,-133.5868 223.2501,-133.5867"/>
</g>
<!-- ImmediateReplayHandler -->
<g id="node5" class="node">
<title>ImmediateReplayHandler</title>
<g id="a_node5"><a xlink:href="../classes/ImmediateReplayHandler/" xlink:title="ImmediateReplayHandler" target="_top">
<polygon fill="none" stroke="#000000" points="252.5,-36 125.5,-36 125.5,0 252.5,0 252.5,-36"/>
<text text-anchor="middle" x="189" y="-15.5" font-family="Helvetica,sans-Serif" font-size="10.00" fill="#000000">ImmediateReplayHandler</text>
</a>
</g>
</g>
<!-- ImmediateReplayHandler&#45;&gt;ReplayHandler -->
<g id="edge4" class="edge">
<title>ImmediateReplayHandler&#45;&gt;ReplayHandler</title>
<path fill="none" stroke="#000000" d="M235.5,-36.1686C235.5,-36.1686 235.5,-61.5867 235.5,-61.5867"/>
<polygon fill="none" stroke="#000000" points="232.0001,-61.5867 235.5,-71.5867 239.0001,-61.5868 232.0001,-61.5867"/>
</g>
<!-- DelayedReplayHandler -->
<g id="node6" class="node">
<title>DelayedReplayHandler</title>
<g id="a_node6"><a xlink:href="../classes/DelayedReplayHandler/" xlink:title="DelayedReplayHandler" target="_top">
<polygon fill="none" stroke="#000000" points="387.5,-36 270.5,-36 270.5,0 387.5,0 387.5,-36"/>
<text text-anchor="middle" x="329" y="-15.5" font-family="Helvetica,sans-Serif" font-size="10.00" fill="#000000">DelayedReplayHandler</text>
</a>
</g>
</g>
<!-- DelayedReplayHandler&#45;&gt;ReplayHandler -->
<g id="edge5" class="edge">
<title>DelayedReplayHandler&#45;&gt;ReplayHandler</title>
<path fill="none" stroke="#000000" d="M285,-36.1686C285,-36.1686 285,-61.5867 285,-61.5867"/>
<polygon fill="none" stroke="#000000" points="281.5001,-61.5867 285,-71.5867 288.5001,-61.5868 281.5001,-61.5867"/>
</g>
<!-- TraceHandler -->
<g id="node7" class="node">
<title>TraceHandler</title>
<g id="a_node7"><a xlink:href="../classes/TraceHandler/" xlink:title="TraceHandler" target="_top">
<polygon fill="none" stroke="#000000" points="392.5,-108 317.5,-108 317.5,-72 392.5,-72 392.5,-108"/>
<text text-anchor="middle" x="355" y="-87.5" font-family="Helvetica,sans-Serif" font-size="10.00" fill="#000000">TraceHandler</text>
</a>
</g>
</g>
<!-- TraceHandler&#45;&gt;Handler -->
<g id="edge6" class="edge">
<title>TraceHandler&#45;&gt;Handler</title>
<path fill="none" stroke="#000000" d="M355,-108.1686C355,-129.498 355,-162 355,-162 355,-162 245.3051,-162 245.3051,-162"/>
<polygon fill="none" stroke="#000000" points="245.3051,-158.5001 235.3051,-162 245.305,-165.5001 245.3051,-158.5001"/>
</g>
</g>
</svg>
