<?xml version="1.0" encoding="UTF-8" standalone="no"?>
<!DOCTYPE svg PUBLIC "-//W3C//DTD SVG 1.1//EN"
 "http://www.w3.org/Graphics/SVG/1.1/DTD/svg11.dtd">
<!-- Generated by graphviz version 2.40.1 (20161225.0304)
 -->
<!-- Title: %3 Pages: 1 -->
<svg width="89pt" height="188pt"
 viewBox="0.00 0.00 89.00 188.00" xmlns="http://www.w3.org/2000/svg" xmlns:xlink="http://www.w3.org/1999/xlink">
<g id="graph0" class="graph" transform="scale(1 1) rotate(0) translate(4 184)">
<title>%3</title>
<polygon fill="#ffffff" stroke="transparent" points="-4,4 -4,-184 85,-184 85,4 -4,4"/>
<!-- EventHandler -->
<g id="node1" class="node">
<title>EventHandler</title>
<g id="a_node1"><a xlink:href="../classes/EventHandler/" xlink:title="EventHandler" target="_top">
<polygon fill="none" stroke="#000000" points="78,-180 3,-180 3,-144 78,-144 78,-180"/>
<text text-anchor="middle" x="40.5" y="-159.5" font-family="Helvetica,sans-Serif" font-size="10.00" fill="#000000">EventHandler</text>
</a>
</g>
</g>
<!-- ReplayHandler -->
<g id="node2" class="node">
<title>ReplayHandler</title>
<g id="a_node2"><a xlink:href="../classes/ReplayHandler/" xlink:title="ReplayHandler" target="_top">
<polygon fill="none" stroke="#000000" points="81,-108 0,-108 0,-72 81,-72 81,-108"/>
<text text-anchor="middle" x="40.5" y="-87.5" font-family="Helvetica,sans-Serif" font-size="10.00" fill="#000000">ReplayHandler</text>
</a>
</g>
</g>
<!-- ReplayHandler&#45;&gt;EventHandler -->
<g id="edge1" class="edge">
<title>ReplayHandler&#45;&gt;EventHandler</title>
<path fill="none" stroke="#000000" d="M40.5,-108.1686C40.5,-108.1686 40.5,-133.5867 40.5,-133.5867"/>
<polygon fill="none" stroke="#000000" points="37.0001,-133.5867 40.5,-143.5867 44.0001,-133.5868 37.0001,-133.5867"/>
</g>
<!-- TraceHandler -->
<g id="node3" class="node">
<title>TraceHandler</title>
<g id="a_node3"><a xlink:href="../classes/TraceHandler/" xlink:title="TraceHandler" target="_top">
<polygon fill="none" stroke="#000000" points="78,-36 3,-36 3,0 78,0 78,-36"/>
<text text-anchor="middle" x="40.5" y="-15.5" font-family="Helvetica,sans-Serif" font-size="10.00" fill="#000000">TraceHandler</text>
</a>
</g>
</g>
<!-- TraceHandler&#45;&gt;ReplayHandler -->
<g id="edge2" class="edge">
<title>TraceHandler&#45;&gt;ReplayHandler</title>
<path fill="none" stroke="#000000" d="M40.5,-36.1686C40.5,-36.1686 40.5,-61.5867 40.5,-61.5867"/>
<polygon fill="none" stroke="#000000" points="37.0001,-61.5867 40.5,-71.5867 44.0001,-61.5868 37.0001,-61.5867"/>
</g>
</g>
</svg>
