<?xml version="1.0" encoding="UTF-8" standalone="no"?>
<!DOCTYPE svg PUBLIC "-//W3C//DTD SVG 1.1//EN"
 "http://www.w3.org/Graphics/SVG/1.1/DTD/svg11.dtd">
<!-- Generated by graphviz version 2.40.1 (20161225.0304)
 -->
<!-- Title: %3 Pages: 1 -->
<svg width="581pt" height="260pt"
 viewBox="0.00 0.00 580.50 260.00" xmlns="http://www.w3.org/2000/svg" xmlns:xlink="http://www.w3.org/1999/xlink">
<g id="graph0" class="graph" transform="scale(1 1) rotate(0) translate(4 256)">
<title>%3</title>
<polygon fill="#ffffff" stroke="transparent" points="-4,4 -4,-256 576.5,-256 576.5,4 -4,4"/>
<!-- Handler -->
<g id="node1" class="node">
<title>Handler</title>
<g id="a_node1"><a xlink:href="../classes/Handler/" xlink:title="Handler" target="_top">
<polygon fill="none" stroke="#000000" points="242.5,-252 188.5,-252 188.5,-216 242.5,-216 242.5,-252"/>
<text text-anchor="middle" x="215.5" y="-231.5" font-family="Helvetica,sans-Serif" font-size="10.00" fill="#000000">Handler</text>
</a>
</g>
</g>
<!-- PlayHandler -->
<g id="node2" class="node">
<title>PlayHandler</title>
<g id="a_node2"><a xlink:href="../classes/PlayHandler/" xlink:title="PlayHandler" target="_top">
<polygon fill="none" stroke="#000000" points="95.5,-180 27.5,-180 27.5,-144 95.5,-144 95.5,-180"/>
<text text-anchor="middle" x="61.5" y="-159.5" font-family="Helvetica,sans-Serif" font-size="10.00" fill="#000000">PlayHandler</text>
</a>
</g>
</g>
<!-- PlayHandler&#45;&gt;Handler -->
<g id="edge1" class="edge">
<title>PlayHandler&#45;&gt;Handler</title>
<path fill="none" stroke="#000000" d="M61.5,-180.1686C61.5,-201.498 61.5,-234 61.5,-234 61.5,-234 178.3224,-234 178.3224,-234"/>
<polygon fill="none" stroke="#000000" points="178.3224,-237.5001 188.3224,-234 178.3224,-230.5001 178.3224,-237.5001"/>
</g>
<!-- PlayDelayHandler -->
<g id="node3" class="node">
<title>PlayDelayHandler</title>
<g id="a_node3"><a xlink:href="../classes/PlayDelayHandler/" xlink:title="PlayDelayHandler" target="_top">
<polygon fill="none" stroke="#000000" points="207,-180 114,-180 114,-144 207,-144 207,-180"/>
<text text-anchor="middle" x="160.5" y="-159.5" font-family="Helvetica,sans-Serif" font-size="10.00" fill="#000000">PlayDelayHandler</text>
</a>
</g>
</g>
<!-- PlayDelayHandler&#45;&gt;Handler -->
<g id="edge2" class="edge">
<title>PlayDelayHandler&#45;&gt;Handler</title>
<path fill="none" stroke="#000000" d="M197.75,-180.1686C197.75,-180.1686 197.75,-205.5867 197.75,-205.5867"/>
<polygon fill="none" stroke="#000000" points="194.2501,-205.5867 197.75,-215.5867 201.2501,-205.5868 194.2501,-205.5867"/>
</g>
<!-- PlayMoveHandler -->
<g id="node4" class="node">
<title>PlayMoveHandler</title>
<g id="a_node4"><a xlink:href="../classes/PlayMoveHandler/" xlink:title="PlayMoveHandler" target="_top">
<polygon fill="none" stroke="#000000" points="317.5,-180 225.5,-180 225.5,-144 317.5,-144 317.5,-180"/>
<text text-anchor="middle" x="271.5" y="-159.5" font-family="Helvetica,sans-Serif" font-size="10.00" fill="#000000">PlayMoveHandler</text>
</a>
</g>
</g>
<!-- PlayMoveHandler&#45;&gt;Handler -->
<g id="edge3" class="edge">
<title>PlayMoveHandler&#45;&gt;Handler</title>
<path fill="none" stroke="#000000" d="M234,-180.1686C234,-180.1686 234,-205.5867 234,-205.5867"/>
<polygon fill="none" stroke="#000000" points="230.5001,-205.5867 234,-215.5867 237.5001,-205.5868 230.5001,-205.5867"/>
</g>
<!-- PlayDelayMoveHandler -->
<g id="node5" class="node">
<title>PlayDelayMoveHandler</title>
<g id="a_node5"><a xlink:href="../classes/PlayDelayMoveHandler/" xlink:title="PlayDelayMoveHandler" target="_top">
<polygon fill="none" stroke="#000000" points="453,-180 336,-180 336,-144 453,-144 453,-180"/>
<text text-anchor="middle" x="394.5" y="-159.5" font-family="Helvetica,sans-Serif" font-size="10.00" fill="#000000">PlayDelayMoveHandler</text>
</a>
</g>
</g>
<!-- PlayDelayMoveHandler&#45;&gt;Handler -->
<g id="edge4" class="edge">
<title>PlayDelayMoveHandler&#45;&gt;Handler</title>
<path fill="none" stroke="#000000" d="M394.5,-180.1686C394.5,-201.498 394.5,-234 394.5,-234 394.5,-234 252.6862,-234 252.6862,-234"/>
<polygon fill="none" stroke="#000000" points="252.6863,-230.5001 242.6862,-234 252.6862,-237.5001 252.6863,-230.5001"/>
</g>
<!-- TraceHandler -->
<g id="node6" class="node">
<title>TraceHandler</title>
<g id="a_node6"><a xlink:href="../classes/TraceHandler/" xlink:title="TraceHandler" target="_top">
<polygon fill="none" stroke="#000000" points="308,-108 235,-108 235,-72 308,-72 308,-108"/>
<text text-anchor="middle" x="271.5" y="-87.5" font-family="Helvetica,sans-Serif" font-size="10.00" fill="#000000">TraceHandler</text>
</a>
</g>
</g>
<!-- TraceHandler&#45;&gt;PlayMoveHandler -->
<!-- ReplayHandler -->
<g id="node7" class="node">
<title>ReplayHandler</title>
<g id="a_node7"><a xlink:href="../classes/ReplayHandler/" xlink:title="ReplayHandler" target="_top">
<polygon fill="none" stroke="#000000" points="79,-36 0,-36 0,0 79,0 79,-36"/>
<text text-anchor="middle" x="39.5" y="-15.5" font-family="Helvetica,sans-Serif" font-size="10.00" fill="#000000">ReplayHandler</text>
</a>
</g>
</g>
<!-- ReplayHandler&#45;&gt;TraceHandler -->
<g id="edge5" class="edge">
<title>ReplayHandler&#45;&gt;TraceHandler</title>
<path fill="none" stroke="#000000" d="M53.25,-36.0908C53.25,-59.1328 53.25,-96 53.25,-96 53.25,-96 224.9699,-96 224.9699,-96"/>
<polygon fill="none" stroke="#000000" points="224.9699,-99.5001 234.9699,-96 224.9698,-92.5001 224.9699,-99.5001"/>
</g>
<!-- ReplayDelayHandler -->
<g id="node8" class="node">
<title>ReplayDelayHandler</title>
<g id="a_node8"><a xlink:href="../classes/ReplayDelayHandler/" xlink:title="ReplayDelayHandler" target="_top">
<polygon fill="none" stroke="#000000" points="202,-36 97,-36 97,0 202,0 202,-36"/>
<text text-anchor="middle" x="149.5" y="-15.5" font-family="Helvetica,sans-Serif" font-size="10.00" fill="#000000">ReplayDelayHandler</text>
</a>
</g>
</g>
<!-- ReplayDelayHandler&#45;&gt;TraceHandler -->
<g id="edge6" class="edge">
<title>ReplayDelayHandler&#45;&gt;TraceHandler</title>
<path fill="none" stroke="#000000" d="M158,-36.0348C158,-55.5762 158,-84 158,-84 158,-84 224.9631,-84 224.9631,-84"/>
<polygon fill="none" stroke="#000000" points="224.9632,-87.5001 234.9631,-84 224.9631,-80.5001 224.9632,-87.5001"/>
</g>
<!-- ReplayMoveHandler -->
<g id="node9" class="node">
<title>ReplayMoveHandler</title>
<g id="a_node9"><a xlink:href="../classes/ReplayMoveHandler/" xlink:title="ReplayMoveHandler" target="_top">
<polygon fill="none" stroke="#000000" points="323,-36 220,-36 220,0 323,0 323,-36"/>
<text text-anchor="middle" x="271.5" y="-15.5" font-family="Helvetica,sans-Serif" font-size="10.00" fill="#000000">ReplayMoveHandler</text>
</a>
</g>
</g>
<!-- ReplayMoveHandler&#45;&gt;TraceHandler -->
<g id="edge7" class="edge">
<title>ReplayMoveHandler&#45;&gt;TraceHandler</title>
<path fill="none" stroke="#000000" d="M271.5,-36.1686C271.5,-36.1686 271.5,-61.5867 271.5,-61.5867"/>
<polygon fill="none" stroke="#000000" points="268.0001,-61.5867 271.5,-71.5867 275.0001,-61.5868 268.0001,-61.5867"/>
</g>
<!-- ReplayDelayMoveHandler -->
<g id="node10" class="node">
<title>ReplayDelayMoveHandler</title>
<g id="a_node10"><a xlink:href="../classes/ReplayDelayMoveHandler/" xlink:title="ReplayDelayMoveHandler" target="_top">
<polygon fill="none" stroke="#000000" points="470,-36 341,-36 341,0 470,0 470,-36"/>
<text text-anchor="middle" x="405.5" y="-15.5" font-family="Helvetica,sans-Serif" font-size="10.00" fill="#000000">ReplayDelayMoveHandler</text>
</a>
</g>
</g>
<!-- ReplayDelayMoveHandler&#45;&gt;TraceHandler -->
<g id="edge8" class="edge">
<title>ReplayDelayMoveHandler&#45;&gt;TraceHandler</title>
<path fill="none" stroke="#000000" d="M397,-36.0348C397,-55.5762 397,-84 397,-84 397,-84 318.1372,-84 318.1372,-84"/>
<polygon fill="none" stroke="#000000" points="318.1372,-80.5001 308.1372,-84 318.1371,-87.5001 318.1372,-80.5001"/>
</g>
<!-- ProposeHandler -->
<g id="node11" class="node">
<title>ProposeHandler</title>
<g id="a_node11"><a xlink:href="../classes/ProposeHandler/" xlink:title="ProposeHandler" target="_top">
<polygon fill="none" stroke="#000000" points="572.5,-36 488.5,-36 488.5,0 572.5,0 572.5,-36"/>
<text text-anchor="middle" x="530.5" y="-15.5" font-family="Helvetica,sans-Serif" font-size="10.00" fill="#000000">ProposeHandler</text>
</a>
</g>
</g>
<!-- ProposeHandler&#45;&gt;TraceHandler -->
<g id="edge9" class="edge">
<title>ProposeHandler&#45;&gt;TraceHandler</title>
<path fill="none" stroke="#000000" d="M530.5,-36.0908C530.5,-59.1328 530.5,-96 530.5,-96 530.5,-96 318.059,-96 318.059,-96"/>
<polygon fill="none" stroke="#000000" points="318.0591,-92.5001 308.059,-96 318.059,-99.5001 318.0591,-92.5001"/>
</g>
</g>
</svg>
