<?xml version="1.0" encoding="UTF-8" standalone="no"?>
<!DOCTYPE svg PUBLIC "-//W3C//DTD SVG 1.1//EN"
 "http://www.w3.org/Graphics/SVG/1.1/DTD/svg11.dtd">
<!-- Generated by graphviz version 2.40.1 (20161225.0304)
 -->
<!-- Title: %3 Pages: 1 -->
<svg width="166pt" height="116pt"
 viewBox="0.00 0.00 166.00 116.00" xmlns="http://www.w3.org/2000/svg" xmlns:xlink="http://www.w3.org/1999/xlink">
<g id="graph0" class="graph" transform="scale(1 1) rotate(0) translate(4 112)">
<title>%3</title>
<polygon fill="#ffffff" stroke="transparent" points="-4,4 -4,-112 162,-112 162,4 -4,4"/>
<!-- Handler -->
<g id="node1" class="node">
<title>Handler</title>
<g id="a_node1"><a xlink:href="../classes/Handler/" xlink:title="Handler" target="_top">
<polygon fill="none" stroke="#000000" points="105,-108 51,-108 51,-72 105,-72 105,-108"/>
<text text-anchor="middle" x="78" y="-87.5" font-family="Helvetica,sans-Serif" font-size="10.00" fill="#000000">Handler</text>
</a>
</g>
</g>
<!-- PlayHandler -->
<g id="node2" class="node">
<title>PlayHandler</title>
<g id="a_node2"><a xlink:href="../classes/PlayHandler/" xlink:title="PlayHandler" target="_top">
<polygon fill="none" stroke="#000000" points="68,-36 0,-36 0,0 68,0 68,-36"/>
<text text-anchor="middle" x="34" y="-15.5" font-family="Helvetica,sans-Serif" font-size="10.00" fill="#000000">PlayHandler</text>
</a>
</g>
</g>
<!-- PlayHandler&#45;&gt;Handler -->
<g id="edge1" class="edge">
<title>PlayHandler&#45;&gt;Handler</title>
<path fill="none" stroke="#000000" d="M59.5,-36.1686C59.5,-36.1686 59.5,-61.5867 59.5,-61.5867"/>
<polygon fill="none" stroke="#000000" points="56.0001,-61.5867 59.5,-71.5867 63.0001,-61.5868 56.0001,-61.5867"/>
</g>
<!-- MoveHandler -->
<g id="node3" class="node">
<title>MoveHandler</title>
<g id="a_node3"><a xlink:href="../classes/MoveHandler/" xlink:title="MoveHandler" target="_top">
<polygon fill="none" stroke="#000000" points="158,-36 86,-36 86,0 158,0 158,-36"/>
<text text-anchor="middle" x="122" y="-15.5" font-family="Helvetica,sans-Serif" font-size="10.00" fill="#000000">MoveHandler</text>
</a>
</g>
</g>
<!-- MoveHandler&#45;&gt;Handler -->
<g id="edge2" class="edge">
<title>MoveHandler&#45;&gt;Handler</title>
<path fill="none" stroke="#000000" d="M95.5,-36.1686C95.5,-36.1686 95.5,-61.5867 95.5,-61.5867"/>
<polygon fill="none" stroke="#000000" points="92.0001,-61.5867 95.5,-71.5867 99.0001,-61.5868 92.0001,-61.5867"/>
</g>
</g>
</svg>
