<?xml version="1.0" encoding="UTF-8" standalone="no"?>
<!DOCTYPE svg PUBLIC "-//W3C//DTD SVG 1.1//EN"
 "http://www.w3.org/Graphics/SVG/1.1/DTD/svg11.dtd">
<!-- Generated by graphviz version 2.40.1 (20161225.0304)
 -->
<!-- Title: %3 Pages: 1 -->
<svg width="222pt" height="188pt"
 viewBox="0.00 0.00 222.00 188.00" xmlns="http://www.w3.org/2000/svg" xmlns:xlink="http://www.w3.org/1999/xlink">
<g id="graph0" class="graph" transform="scale(1 1) rotate(0) translate(4 184)">
<title>%3</title>
<polygon fill="#ffffff" stroke="transparent" points="-4,4 -4,-184 218,-184 218,4 -4,4"/>
<!-- Model -->
<g id="node1" class="node">
<title>Model</title>
<g id="a_node1"><a xlink:href="../classes/Model/" xlink:title="Model" target="_top">
<polygon fill="none" stroke="#000000" points="79,-180 25,-180 25,-144 79,-144 79,-180"/>
<text text-anchor="middle" x="52" y="-159.5" font-family="Helvetica,sans-Serif" font-size="10.00" fill="#000000">Model</text>
</a>
</g>
</g>
<!-- MarkovModel -->
<g id="node2" class="node">
<title>MarkovModel</title>
<g id="a_node2"><a xlink:href="../classes/MarkovModel/" xlink:title="MarkovModel" target="_top">
<polygon fill="none" stroke="#000000" points="88.5,-108 15.5,-108 15.5,-72 88.5,-72 88.5,-108"/>
<text text-anchor="middle" x="52" y="-87.5" font-family="Helvetica,sans-Serif" font-size="10.00" fill="#000000">MarkovModel</text>
</a>
</g>
</g>
<!-- MarkovModel&#45;&gt;Model -->
<g id="edge1" class="edge">
<title>MarkovModel&#45;&gt;Model</title>
<path fill="none" stroke="#000000" d="M52,-108.1686C52,-108.1686 52,-133.5867 52,-133.5867"/>
<polygon fill="none" stroke="#000000" points="48.5001,-133.5867 52,-143.5867 55.5001,-133.5868 48.5001,-133.5867"/>
</g>
<!-- HiddenMarkovModel -->
<g id="node3" class="node">
<title>HiddenMarkovModel</title>
<g id="a_node3"><a xlink:href="../classes/HiddenMarkovModel/" xlink:title="HiddenMarkovModel" target="_top">
<polygon fill="none" stroke="#000000" points="104,-36 0,-36 0,0 104,0 104,-36"/>
<text text-anchor="middle" x="52" y="-15.5" font-family="Helvetica,sans-Serif" font-size="10.00" fill="#000000">HiddenMarkovModel</text>
</a>
</g>
</g>
<!-- HiddenMarkovModel&#45;&gt;MarkovModel -->
<g id="edge2" class="edge">
<title>HiddenMarkovModel&#45;&gt;MarkovModel</title>
<path fill="none" stroke="#000000" d="M52,-36.1686C52,-36.1686 52,-61.5867 52,-61.5867"/>
<polygon fill="none" stroke="#000000" points="48.5001,-61.5867 52,-71.5867 55.5001,-61.5868 48.5001,-61.5867"/>
</g>
<!-- StateSpaceModel -->
<g id="node4" class="node">
<title>StateSpaceModel</title>
<g id="a_node4"><a xlink:href="../classes/StateSpaceModel/" xlink:title="StateSpaceModel" target="_top">
<polygon fill="none" stroke="#000000" points="214,-36 122,-36 122,0 214,0 214,-36"/>
<text text-anchor="middle" x="168" y="-15.5" font-family="Helvetica,sans-Serif" font-size="10.00" fill="#000000">StateSpaceModel</text>
</a>
</g>
</g>
<!-- StateSpaceModel&#45;&gt;HiddenMarkovModel -->
<g id="edge3" class="edge">
<title>StateSpaceModel&#45;&gt;HiddenMarkovModel</title>
<path fill="none" stroke="#000000" d="M121.8204,-20C116.0078,-20 110.0297,-20 104.1334,-20"/>
<path fill="none" stroke="#ffffff" d="M121.8204,-18C116.0078,-18 110.0297,-18 104.1334,-18"/>
<path fill="none" stroke="#000000" d="M121.8204,-16C116.0078,-16 110.0297,-16 104.1334,-16"/>
</g>
</g>
</svg>
