<?xml version="1.0" encoding="UTF-8" standalone="no"?>
<!DOCTYPE svg PUBLIC "-//W3C//DTD SVG 1.1//EN"
 "http://www.w3.org/Graphics/SVG/1.1/DTD/svg11.dtd">
<!-- Generated by graphviz version 2.40.1 (20161225.0304)
 -->
<!-- Title: %3 Pages: 1 -->
<svg width="226pt" height="404pt"
 viewBox="0.00 0.00 225.50 404.00" xmlns="http://www.w3.org/2000/svg" xmlns:xlink="http://www.w3.org/1999/xlink">
<g id="graph0" class="graph" transform="scale(1 1) rotate(0) translate(4 400)">
<title>%3</title>
<polygon fill="#ffffff" stroke="transparent" points="-4,4 -4,-400 221.5,-400 221.5,4 -4,4"/>
<!-- Model -->
<g id="node1" class="node">
<title>Model</title>
<g id="a_node1"><a xlink:href="../classes/Model/" xlink:title="Model" target="_top">
<polygon fill="none" stroke="#000000" points="137.5,-396 83.5,-396 83.5,-360 137.5,-360 137.5,-396"/>
<text text-anchor="middle" x="110.5" y="-375.5" font-family="Helvetica,sans-Serif" font-size="10.00" fill="#000000">Model</text>
</a>
</g>
</g>
<!-- ForwardModel -->
<g id="node2" class="node">
<title>ForwardModel</title>
<g id="a_node2"><a xlink:href="../classes/ForwardModel/" xlink:title="ForwardModel" target="_top">
<polygon fill="none" stroke="#000000" points="148.5,-324 72.5,-324 72.5,-288 148.5,-288 148.5,-324"/>
<text text-anchor="middle" x="110.5" y="-303.5" font-family="Helvetica,sans-Serif" font-size="10.00" fill="#000000">ForwardModel</text>
</a>
</g>
</g>
<!-- ForwardModel&#45;&gt;Model -->
<g id="edge1" class="edge">
<title>ForwardModel&#45;&gt;Model</title>
<path fill="none" stroke="#000000" d="M110.5,-324.1686C110.5,-324.1686 110.5,-349.5867 110.5,-349.5867"/>
<polygon fill="none" stroke="#000000" points="107.0001,-349.5867 110.5,-359.5867 114.0001,-349.5868 107.0001,-349.5867"/>
</g>
<!-- BidirectionalModel -->
<g id="node3" class="node">
<title>BidirectionalModel</title>
<g id="a_node3"><a xlink:href="../classes/BidirectionalModel/" xlink:title="BidirectionalModel" target="_top">
<polygon fill="none" stroke="#000000" points="157.5,-252 63.5,-252 63.5,-216 157.5,-216 157.5,-252"/>
<text text-anchor="middle" x="110.5" y="-231.5" font-family="Helvetica,sans-Serif" font-size="10.00" fill="#000000">BidirectionalModel</text>
</a>
</g>
</g>
<!-- BidirectionalModel&#45;&gt;ForwardModel -->
<g id="edge2" class="edge">
<title>BidirectionalModel&#45;&gt;ForwardModel</title>
<path fill="none" stroke="#000000" d="M110.5,-252.1686C110.5,-252.1686 110.5,-277.5867 110.5,-277.5867"/>
<polygon fill="none" stroke="#000000" points="107.0001,-277.5867 110.5,-287.5867 114.0001,-277.5868 107.0001,-277.5867"/>
</g>
<!-- RandomAccessModel -->
<g id="node4" class="node">
<title>RandomAccessModel</title>
<g id="a_node4"><a xlink:href="../classes/RandomAccessModel/" xlink:title="RandomAccessModel" target="_top">
<polygon fill="none" stroke="#000000" points="111,-180 0,-180 0,-144 111,-144 111,-180"/>
<text text-anchor="middle" x="55.5" y="-159.5" font-family="Helvetica,sans-Serif" font-size="10.00" fill="#000000">RandomAccessModel</text>
</a>
</g>
</g>
<!-- RandomAccessModel&#45;&gt;BidirectionalModel -->
<g id="edge3" class="edge">
<title>RandomAccessModel&#45;&gt;BidirectionalModel</title>
<path fill="none" stroke="#000000" d="M87.25,-180.1686C87.25,-180.1686 87.25,-205.5867 87.25,-205.5867"/>
<polygon fill="none" stroke="#000000" points="83.7501,-205.5867 87.25,-215.5867 90.7501,-205.5868 83.7501,-205.5867"/>
</g>
<!-- StarModel -->
<g id="node5" class="node">
<title>StarModel</title>
<g id="a_node5"><a xlink:href="../classes/StarModel/" xlink:title="StarModel" target="_top">
<polygon fill="none" stroke="#000000" points="85,-108 26,-108 26,-72 85,-72 85,-108"/>
<text text-anchor="middle" x="55.5" y="-87.5" font-family="Helvetica,sans-Serif" font-size="10.00" fill="#000000">StarModel</text>
</a>
</g>
</g>
<!-- StarModel&#45;&gt;RandomAccessModel -->
<g id="edge4" class="edge">
<title>StarModel&#45;&gt;RandomAccessModel</title>
<path fill="none" stroke="#000000" d="M55.5,-108.1686C55.5,-108.1686 55.5,-133.5867 55.5,-133.5867"/>
<polygon fill="none" stroke="#000000" points="52.0001,-133.5867 55.5,-143.5867 59.0001,-133.5868 52.0001,-133.5867"/>
</g>
<!-- HiddenStarModel -->
<g id="node6" class="node">
<title>HiddenStarModel</title>
<g id="a_node6"><a xlink:href="../classes/HiddenStarModel/" xlink:title="HiddenStarModel" target="_top">
<polygon fill="none" stroke="#000000" points="100.5,-36 10.5,-36 10.5,0 100.5,0 100.5,-36"/>
<text text-anchor="middle" x="55.5" y="-15.5" font-family="Helvetica,sans-Serif" font-size="10.00" fill="#000000">HiddenStarModel</text>
</a>
</g>
</g>
<!-- HiddenStarModel&#45;&gt;StarModel -->
<g id="edge5" class="edge">
<title>HiddenStarModel&#45;&gt;StarModel</title>
<path fill="none" stroke="#000000" d="M55.5,-36.1686C55.5,-36.1686 55.5,-61.5867 55.5,-61.5867"/>
<polygon fill="none" stroke="#000000" points="52.0001,-61.5867 55.5,-71.5867 59.0001,-61.5868 52.0001,-61.5867"/>
</g>
<!-- MarkovModel -->
<g id="node7" class="node">
<title>MarkovModel</title>
<g id="a_node7"><a xlink:href="../classes/MarkovModel/" xlink:title="MarkovModel" target="_top">
<polygon fill="none" stroke="#000000" points="202,-180 129,-180 129,-144 202,-144 202,-180"/>
<text text-anchor="middle" x="165.5" y="-159.5" font-family="Helvetica,sans-Serif" font-size="10.00" fill="#000000">MarkovModel</text>
</a>
</g>
</g>
<!-- MarkovModel&#45;&gt;BidirectionalModel -->
<g id="edge6" class="edge">
<title>MarkovModel&#45;&gt;BidirectionalModel</title>
<path fill="none" stroke="#000000" d="M143.25,-180.1686C143.25,-180.1686 143.25,-205.5867 143.25,-205.5867"/>
<polygon fill="none" stroke="#000000" points="139.7501,-205.5867 143.25,-215.5867 146.7501,-205.5868 139.7501,-205.5867"/>
</g>
<!-- HiddenMarkovModel -->
<g id="node8" class="node">
<title>HiddenMarkovModel</title>
<g id="a_node8"><a xlink:href="../classes/HiddenMarkovModel/" xlink:title="HiddenMarkovModel" target="_top">
<polygon fill="none" stroke="#000000" points="217.5,-108 113.5,-108 113.5,-72 217.5,-72 217.5,-108"/>
<text text-anchor="middle" x="165.5" y="-87.5" font-family="Helvetica,sans-Serif" font-size="10.00" fill="#000000">HiddenMarkovModel</text>
</a>
</g>
</g>
<!-- HiddenMarkovModel&#45;&gt;MarkovModel -->
<g id="edge7" class="edge">
<title>HiddenMarkovModel&#45;&gt;MarkovModel</title>
<path fill="none" stroke="#000000" d="M165.5,-108.1686C165.5,-108.1686 165.5,-133.5867 165.5,-133.5867"/>
<polygon fill="none" stroke="#000000" points="162.0001,-133.5867 165.5,-143.5867 169.0001,-133.5868 162.0001,-133.5867"/>
</g>
</g>
</svg>
