<?xml version="1.0" encoding="UTF-8" standalone="no"?>
<!DOCTYPE svg PUBLIC "-//W3C//DTD SVG 1.1//EN"
 "http://www.w3.org/Graphics/SVG/1.1/DTD/svg11.dtd">
<!-- Generated by graphviz version 2.40.1 (20161225.0304)
 -->
<!-- Title: %3 Pages: 1 -->
<svg width="229pt" height="404pt"
 viewBox="0.00 0.00 229.00 404.00" xmlns="http://www.w3.org/2000/svg" xmlns:xlink="http://www.w3.org/1999/xlink">
<g id="graph0" class="graph" transform="scale(1 1) rotate(0) translate(4 400)">
<title>%3</title>
<polygon fill="#ffffff" stroke="transparent" points="-4,4 -4,-400 225,-400 225,4 -4,4"/>
<!-- Model -->
<g id="node1" class="node">
<title>Model</title>
<g id="a_node1"><a xlink:href="../classes/Model/" xlink:title="Model" target="_top">
<polygon fill="none" stroke="#000000" points="139,-396 85,-396 85,-360 139,-360 139,-396"/>
<text text-anchor="middle" x="112" y="-375.5" font-family="Helvetica,sans-Serif" font-size="10.00" fill="#000000">Model</text>
</a>
</g>
</g>
<!-- ForwardModel -->
<g id="node2" class="node">
<title>ForwardModel</title>
<g id="a_node2"><a xlink:href="../classes/ForwardModel/" xlink:title="ForwardModel" target="_top">
<polygon fill="none" stroke="#000000" points="151,-324 73,-324 73,-288 151,-288 151,-324"/>
<text text-anchor="middle" x="112" y="-303.5" font-family="Helvetica,sans-Serif" font-size="10.00" fill="#000000">ForwardModel</text>
</a>
</g>
</g>
<!-- ForwardModel&#45;&gt;Model -->
<g id="edge1" class="edge">
<title>ForwardModel:n&#45;&gt;Model:s</title>
<path fill="none" stroke="#000000" d="M112,-324C112,-324 112,-350 112,-350"/>
<polygon fill="none" stroke="#000000" points="108.5001,-350 112,-360 115.5001,-350 108.5001,-350"/>
</g>
<!-- BidirectionalModel -->
<g id="node3" class="node">
<title>BidirectionalModel</title>
<g id="a_node3"><a xlink:href="../classes/BidirectionalModel/" xlink:title="BidirectionalModel" target="_top">
<polygon fill="none" stroke="#000000" points="160,-252 64,-252 64,-216 160,-216 160,-252"/>
<text text-anchor="middle" x="112" y="-231.5" font-family="Helvetica,sans-Serif" font-size="10.00" fill="#000000">BidirectionalModel</text>
</a>
</g>
</g>
<!-- BidirectionalModel&#45;&gt;ForwardModel -->
<g id="edge2" class="edge">
<title>BidirectionalModel:n&#45;&gt;ForwardModel:s</title>
<path fill="none" stroke="#000000" d="M112,-252C112,-252 112,-278 112,-278"/>
<polygon fill="none" stroke="#000000" points="108.5001,-278 112,-288 115.5001,-278 108.5001,-278"/>
</g>
<!-- RandomAccessModel -->
<g id="node4" class="node">
<title>RandomAccessModel</title>
<g id="a_node4"><a xlink:href="../classes/RandomAccessModel/" xlink:title="RandomAccessModel" target="_top">
<polygon fill="none" stroke="#000000" points="112,-180 0,-180 0,-144 112,-144 112,-180"/>
<text text-anchor="middle" x="56" y="-159.5" font-family="Helvetica,sans-Serif" font-size="10.00" fill="#000000">RandomAccessModel</text>
</a>
</g>
</g>
<!-- RandomAccessModel&#45;&gt;BidirectionalModel -->
<g id="edge3" class="edge">
<title>RandomAccessModel:n&#45;&gt;BidirectionalModel:s</title>
<path fill="none" stroke="#000000" d="M88,-180C88,-180 88,-206 88,-206"/>
<polygon fill="none" stroke="#000000" points="84.5001,-206 88,-216 91.5001,-206 84.5001,-206"/>
</g>
<!-- StarModel -->
<g id="node5" class="node">
<title>StarModel</title>
<g id="a_node5"><a xlink:href="../classes/StarModel/" xlink:title="StarModel" target="_top">
<polygon fill="none" stroke="#000000" points="86,-108 26,-108 26,-72 86,-72 86,-108"/>
<text text-anchor="middle" x="56" y="-87.5" font-family="Helvetica,sans-Serif" font-size="10.00" fill="#000000">StarModel</text>
</a>
</g>
</g>
<!-- StarModel&#45;&gt;RandomAccessModel -->
<g id="edge4" class="edge">
<title>StarModel:n&#45;&gt;RandomAccessModel:s</title>
<path fill="none" stroke="#000000" d="M56,-108C56,-108 56,-134 56,-134"/>
<polygon fill="none" stroke="#000000" points="52.5001,-134 56,-144 59.5001,-134 52.5001,-134"/>
</g>
<!-- HiddenStarModel -->
<g id="node6" class="node">
<title>HiddenStarModel</title>
<g id="a_node6"><a xlink:href="../classes/HiddenStarModel/" xlink:title="HiddenStarModel" target="_top">
<polygon fill="none" stroke="#000000" points="102,-36 10,-36 10,0 102,0 102,-36"/>
<text text-anchor="middle" x="56" y="-15.5" font-family="Helvetica,sans-Serif" font-size="10.00" fill="#000000">HiddenStarModel</text>
</a>
</g>
</g>
<!-- HiddenStarModel&#45;&gt;StarModel -->
<g id="edge5" class="edge">
<title>HiddenStarModel:n&#45;&gt;StarModel:s</title>
<path fill="none" stroke="#000000" d="M56,-36C56,-36 56,-62 56,-62"/>
<polygon fill="none" stroke="#000000" points="52.5001,-62 56,-72 59.5001,-62 52.5001,-62"/>
</g>
<!-- MarkovModel -->
<g id="node7" class="node">
<title>MarkovModel</title>
<g id="a_node7"><a xlink:href="../classes/MarkovModel/" xlink:title="MarkovModel" target="_top">
<polygon fill="none" stroke="#000000" points="205.5,-180 130.5,-180 130.5,-144 205.5,-144 205.5,-180"/>
<text text-anchor="middle" x="168" y="-159.5" font-family="Helvetica,sans-Serif" font-size="10.00" fill="#000000">MarkovModel</text>
</a>
</g>
</g>
<!-- MarkovModel&#45;&gt;BidirectionalModel -->
<g id="edge6" class="edge">
<title>MarkovModel:n&#45;&gt;BidirectionalModel:s</title>
<path fill="none" stroke="#000000" d="M145.25,-180C145.25,-180 145.25,-206 145.25,-206"/>
<polygon fill="none" stroke="#000000" points="141.7501,-206 145.25,-216 148.7501,-206 141.7501,-206"/>
</g>
<!-- HiddenMarkovModel -->
<g id="node8" class="node">
<title>HiddenMarkovModel</title>
<g id="a_node8"><a xlink:href="../classes/HiddenMarkovModel/" xlink:title="HiddenMarkovModel" target="_top">
<polygon fill="none" stroke="#000000" points="221,-108 115,-108 115,-72 221,-72 221,-108"/>
<text text-anchor="middle" x="168" y="-87.5" font-family="Helvetica,sans-Serif" font-size="10.00" fill="#000000">HiddenMarkovModel</text>
</a>
</g>
</g>
<!-- HiddenMarkovModel&#45;&gt;MarkovModel -->
<g id="edge7" class="edge">
<title>HiddenMarkovModel:n&#45;&gt;MarkovModel:s</title>
<path fill="none" stroke="#000000" d="M168,-108C168,-108 168,-134 168,-134"/>
<polygon fill="none" stroke="#000000" points="164.5001,-134 168,-144 171.5001,-134 164.5001,-134"/>
</g>
</g>
</svg>
