<?xml version="1.0" encoding="UTF-8" standalone="no"?>
<!DOCTYPE svg PUBLIC "-//W3C//DTD SVG 1.1//EN"
 "http://www.w3.org/Graphics/SVG/1.1/DTD/svg11.dtd">
<!-- Generated by graphviz version 2.40.1 (20161225.0304)
 -->
<!-- Title: %3 Pages: 1 -->
<svg width="505pt" height="116pt"
 viewBox="0.00 0.00 505.00 116.00" xmlns="http://www.w3.org/2000/svg" xmlns:xlink="http://www.w3.org/1999/xlink">
<g id="graph0" class="graph" transform="scale(1 1) rotate(0) translate(4 112)">
<title>%3</title>
<polygon fill="#ffffff" stroke="transparent" points="-4,4 -4,-112 501,-112 501,4 -4,4"/>
<!-- ParticleSampler -->
<g id="node1" class="node">
<title>ParticleSampler</title>
<g id="a_node1"><a xlink:href="../classes/ParticleSampler/" xlink:title="ParticleSampler" target="_top">
<polygon fill="none" stroke="#000000" points="251.5,-108 167.5,-108 167.5,-72 251.5,-72 251.5,-108"/>
<text text-anchor="middle" x="209.5" y="-87.5" font-family="Helvetica,sans-Serif" font-size="10.00" fill="#000000">ParticleSampler</text>
</a>
</g>
</g>
<!-- ParticleGibbsSampler -->
<g id="node2" class="node">
<title>ParticleGibbsSampler</title>
<g id="a_node2"><a xlink:href="../classes/ParticleGibbsSampler/" xlink:title="ParticleGibbsSampler" target="_top">
<polygon fill="none" stroke="#000000" points="109,-36 0,-36 0,0 109,0 109,-36"/>
<text text-anchor="middle" x="54.5" y="-15.5" font-family="Helvetica,sans-Serif" font-size="10.00" fill="#000000">ParticleGibbsSampler</text>
</a>
</g>
</g>
<!-- ParticleGibbsSampler&#45;&gt;ParticleSampler -->
<g id="edge1" class="edge">
<title>ParticleGibbsSampler&#45;&gt;ParticleSampler</title>
<path fill="none" stroke="#000000" d="M54.5,-36.1686C54.5,-57.498 54.5,-90 54.5,-90 54.5,-90 157.1456,-90 157.1456,-90"/>
<polygon fill="none" stroke="#000000" points="157.1456,-93.5001 167.1456,-90 157.1455,-86.5001 157.1456,-93.5001"/>
</g>
<!-- MarginalizedParticleGibbsSampler -->
<g id="node3" class="node">
<title>MarginalizedParticleGibbsSampler</title>
<g id="a_node3"><a xlink:href="../classes/MarginalizedParticleGibbsSampler/" xlink:title="MarginalizedParticleGibbsSampler" target="_top">
<polygon fill="none" stroke="#000000" points="291.5,-36 127.5,-36 127.5,0 291.5,0 291.5,-36"/>
<text text-anchor="middle" x="209.5" y="-15.5" font-family="Helvetica,sans-Serif" font-size="10.00" fill="#000000">MarginalizedParticleGibbsSampler</text>
</a>
</g>
</g>
<!-- MarginalizedParticleGibbsSampler&#45;&gt;ParticleSampler -->
<g id="edge2" class="edge">
<title>MarginalizedParticleGibbsSampler&#45;&gt;ParticleSampler</title>
<path fill="none" stroke="#000000" d="M209.5,-36.1686C209.5,-36.1686 209.5,-61.5867 209.5,-61.5867"/>
<polygon fill="none" stroke="#000000" points="206.0001,-61.5867 209.5,-71.5867 213.0001,-61.5868 206.0001,-61.5867"/>
</g>
<!-- MarginalizedParticleImportanceSampler -->
<g id="node4" class="node">
<title>MarginalizedParticleImportanceSampler</title>
<g id="a_node4"><a xlink:href="../classes/MarginalizedParticleImportanceSampler/" xlink:title="MarginalizedParticleImportanceSampler" target="_top">
<polygon fill="none" stroke="#000000" points="497,-36 310,-36 310,0 497,0 497,-36"/>
<text text-anchor="middle" x="403.5" y="-15.5" font-family="Helvetica,sans-Serif" font-size="10.00" fill="#000000">MarginalizedParticleImportanceSampler</text>
</a>
</g>
</g>
<!-- MarginalizedParticleImportanceSampler&#45;&gt;ParticleSampler -->
<g id="edge3" class="edge">
<title>MarginalizedParticleImportanceSampler&#45;&gt;ParticleSampler</title>
<path fill="none" stroke="#000000" d="M403.5,-36.1686C403.5,-57.498 403.5,-90 403.5,-90 403.5,-90 261.5951,-90 261.5951,-90"/>
<polygon fill="none" stroke="#000000" points="261.5951,-86.5001 251.5951,-90 261.5951,-93.5001 261.5951,-86.5001"/>
</g>
</g>
</svg>
