<?xml version="1.0" encoding="UTF-8" standalone="no"?>
<!DOCTYPE svg PUBLIC "-//W3C//DTD SVG 1.1//EN"
 "http://www.w3.org/Graphics/SVG/1.1/DTD/svg11.dtd">
<!-- Generated by graphviz version 2.40.1 (20161225.0304)
 -->
<!-- Title: %3 Pages: 1 -->
<svg width="411pt" height="188pt"
 viewBox="0.00 0.00 411.00 188.00" xmlns="http://www.w3.org/2000/svg" xmlns:xlink="http://www.w3.org/1999/xlink">
<g id="graph0" class="graph" transform="scale(1 1) rotate(0) translate(4 184)">
<title>%3</title>
<polygon fill="#ffffff" stroke="transparent" points="-4,4 -4,-184 407,-184 407,4 -4,4"/>
<!-- ParticleSampler -->
<g id="node1" class="node">
<title>ParticleSampler</title>
<g id="a_node1"><a xlink:href="../classes/ParticleSampler/" xlink:title="ParticleSampler" target="_top">
<polygon fill="none" stroke="#000000" points="262.5,-180 178.5,-180 178.5,-144 262.5,-144 262.5,-180"/>
<text text-anchor="middle" x="220.5" y="-159.5" font-family="Helvetica,sans-Serif" font-size="10.00" fill="#000000">ParticleSampler</text>
</a>
</g>
</g>
<!-- ConditionalParticleSampler -->
<g id="node2" class="node">
<title>ConditionalParticleSampler</title>
<g id="a_node2"><a xlink:href="../classes/ConditionalParticleSampler/" xlink:title="ConditionalParticleSampler" target="_top">
<polygon fill="none" stroke="#000000" points="197.5,-108 65.5,-108 65.5,-72 197.5,-72 197.5,-108"/>
<text text-anchor="middle" x="131.5" y="-87.5" font-family="Helvetica,sans-Serif" font-size="10.00" fill="#000000">ConditionalParticleSampler</text>
</a>
</g>
</g>
<!-- ConditionalParticleSampler&#45;&gt;ParticleSampler -->
<g id="edge3" class="edge">
<title>ConditionalParticleSampler&#45;&gt;ParticleSampler</title>
<path fill="none" stroke="#000000" d="M188,-108.1686C188,-108.1686 188,-133.5867 188,-133.5867"/>
<polygon fill="none" stroke="#000000" points="184.5001,-133.5867 188,-143.5867 191.5001,-133.5868 184.5001,-133.5867"/>
</g>
<!-- ParticleGibbsSampler -->
<g id="node3" class="node">
<title>ParticleGibbsSampler</title>
<g id="a_node3"><a xlink:href="../classes/ParticleGibbsSampler/" xlink:title="ParticleGibbsSampler" target="_top">
<polygon fill="none" stroke="#000000" points="109,-36 0,-36 0,0 109,0 109,-36"/>
<text text-anchor="middle" x="54.5" y="-15.5" font-family="Helvetica,sans-Serif" font-size="10.00" fill="#000000">ParticleGibbsSampler</text>
</a>
</g>
</g>
<!-- ParticleGibbsSampler&#45;&gt;ConditionalParticleSampler -->
<g id="edge1" class="edge">
<title>ParticleGibbsSampler&#45;&gt;ConditionalParticleSampler</title>
<path fill="none" stroke="#000000" d="M87.25,-36.1686C87.25,-36.1686 87.25,-61.5867 87.25,-61.5867"/>
<polygon fill="none" stroke="#000000" points="83.7501,-61.5867 87.25,-71.5867 90.7501,-61.5868 83.7501,-61.5867"/>
</g>
<!-- MarginalizedParticleGibbsSampler -->
<g id="node4" class="node">
<title>MarginalizedParticleGibbsSampler</title>
<g id="a_node4"><a xlink:href="../classes/MarginalizedParticleGibbsSampler/" xlink:title="MarginalizedParticleGibbsSampler" target="_top">
<polygon fill="none" stroke="#000000" points="291.5,-36 127.5,-36 127.5,0 291.5,0 291.5,-36"/>
<text text-anchor="middle" x="209.5" y="-15.5" font-family="Helvetica,sans-Serif" font-size="10.00" fill="#000000">MarginalizedParticleGibbsSampler</text>
</a>
</g>
</g>
<!-- MarginalizedParticleGibbsSampler&#45;&gt;ConditionalParticleSampler -->
<g id="edge2" class="edge">
<title>MarginalizedParticleGibbsSampler&#45;&gt;ConditionalParticleSampler</title>
<path fill="none" stroke="#000000" d="M162.5,-36.1686C162.5,-36.1686 162.5,-61.5867 162.5,-61.5867"/>
<polygon fill="none" stroke="#000000" points="159.0001,-61.5867 162.5,-71.5867 166.0001,-61.5868 159.0001,-61.5867"/>
</g>
<!-- MarginalizedParticleImportanceSampler -->
<g id="node5" class="node">
<title>MarginalizedParticleImportanceSampler</title>
<g id="a_node5"><a xlink:href="../classes/MarginalizedParticleImportanceSampler/" xlink:title="MarginalizedParticleImportanceSampler" target="_top">
<polygon fill="none" stroke="#000000" points="403,-108 216,-108 216,-72 403,-72 403,-108"/>
<text text-anchor="middle" x="309.5" y="-87.5" font-family="Helvetica,sans-Serif" font-size="10.00" fill="#000000">MarginalizedParticleImportanceSampler</text>
</a>
</g>
</g>
<!-- MarginalizedParticleImportanceSampler&#45;&gt;ParticleSampler -->
<g id="edge4" class="edge">
<title>MarginalizedParticleImportanceSampler&#45;&gt;ParticleSampler</title>
<path fill="none" stroke="#000000" d="M239.25,-108.1686C239.25,-108.1686 239.25,-133.5867 239.25,-133.5867"/>
<polygon fill="none" stroke="#000000" points="235.7501,-133.5867 239.25,-143.5867 242.7501,-133.5868 235.7501,-133.5867"/>
</g>
</g>
</svg>
