<?xml version="1.0" encoding="UTF-8" standalone="no"?>
<!DOCTYPE svg PUBLIC "-//W3C//DTD SVG 1.1//EN"
 "http://www.w3.org/Graphics/SVG/1.1/DTD/svg11.dtd">
<!-- Generated by graphviz version 2.40.1 (20161225.0304)
 -->
<!-- Title: %3 Pages: 1 -->
<svg width="581pt" height="260pt"
 viewBox="0.00 0.00 581.00 260.00" xmlns="http://www.w3.org/2000/svg" xmlns:xlink="http://www.w3.org/1999/xlink">
<g id="graph0" class="graph" transform="scale(1 1) rotate(0) translate(4 256)">
<title>%3</title>
<polygon fill="#ffffff" stroke="transparent" points="-4,4 -4,-256 577,-256 577,4 -4,4"/>
<!-- Sampler -->
<g id="node1" class="node">
<title>Sampler</title>
<g id="a_node1"><a xlink:href="../classes/Sampler/" xlink:title="Sampler" target="_top">
<polygon fill="none" stroke="#000000" points="267,-252 213,-252 213,-216 267,-216 267,-252"/>
<text text-anchor="middle" x="240" y="-231.5" font-family="Helvetica,sans-Serif" font-size="10.00" fill="#000000">Sampler</text>
</a>
</g>
</g>
<!-- ForwardSampler -->
<g id="node2" class="node">
<title>ForwardSampler</title>
<g id="a_node2"><a xlink:href="../classes/ForwardSampler/" xlink:title="ForwardSampler" target="_top">
<polygon fill="none" stroke="#000000" points="228,-180 140,-180 140,-144 228,-144 228,-180"/>
<text text-anchor="middle" x="184" y="-159.5" font-family="Helvetica,sans-Serif" font-size="10.00" fill="#000000">ForwardSampler</text>
</a>
</g>
</g>
<!-- ForwardSampler&#45;&gt;Sampler -->
<g id="edge1" class="edge">
<title>ForwardSampler&#45;&gt;Sampler</title>
<path fill="none" stroke="#000000" d="M220.5,-180.1686C220.5,-180.1686 220.5,-205.5867 220.5,-205.5867"/>
<polygon fill="none" stroke="#000000" points="217.0001,-205.5867 220.5,-215.5867 224.0001,-205.5868 217.0001,-205.5867"/>
</g>
<!-- BidirectionalSampler -->
<g id="node3" class="node">
<title>BidirectionalSampler</title>
<g id="a_node3"><a xlink:href="../classes/BidirectionalSampler/" xlink:title="BidirectionalSampler" target="_top">
<polygon fill="none" stroke="#000000" points="184,-108 78,-108 78,-72 184,-72 184,-108"/>
<text text-anchor="middle" x="131" y="-87.5" font-family="Helvetica,sans-Serif" font-size="10.00" fill="#000000">BidirectionalSampler</text>
</a>
</g>
</g>
<!-- BidirectionalSampler&#45;&gt;ForwardSampler -->
<g id="edge2" class="edge">
<title>BidirectionalSampler&#45;&gt;ForwardSampler</title>
<path fill="none" stroke="#000000" d="M162,-108.1686C162,-108.1686 162,-133.5867 162,-133.5867"/>
<polygon fill="none" stroke="#000000" points="158.5001,-133.5867 162,-143.5867 165.5001,-133.5868 158.5001,-133.5867"/>
</g>
<!-- RandomAccessSampler -->
<g id="node4" class="node">
<title>RandomAccessSampler</title>
<g id="a_node4"><a xlink:href="../classes/RandomAccessSampler/" xlink:title="RandomAccessSampler" target="_top">
<polygon fill="none" stroke="#000000" points="122,-36 0,-36 0,0 122,0 122,-36"/>
<text text-anchor="middle" x="61" y="-15.5" font-family="Helvetica,sans-Serif" font-size="10.00" fill="#000000">RandomAccessSampler</text>
</a>
</g>
</g>
<!-- RandomAccessSampler&#45;&gt;BidirectionalSampler -->
<g id="edge3" class="edge">
<title>RandomAccessSampler&#45;&gt;BidirectionalSampler</title>
<path fill="none" stroke="#000000" d="M100,-36.1686C100,-36.1686 100,-61.5867 100,-61.5867"/>
<polygon fill="none" stroke="#000000" points="96.5001,-61.5867 100,-71.5867 103.5001,-61.5868 96.5001,-61.5867"/>
</g>
<!-- ImportanceSampler -->
<g id="node5" class="node">
<title>ImportanceSampler</title>
<g id="a_node5"><a xlink:href="../classes/ImportanceSampler/" xlink:title="ImportanceSampler" target="_top">
<polygon fill="none" stroke="#000000" points="348,-180 246,-180 246,-144 348,-144 348,-180"/>
<text text-anchor="middle" x="297" y="-159.5" font-family="Helvetica,sans-Serif" font-size="10.00" fill="#000000">ImportanceSampler</text>
</a>
</g>
</g>
<!-- ImportanceSampler&#45;&gt;Sampler -->
<g id="edge4" class="edge">
<title>ImportanceSampler&#45;&gt;Sampler</title>
<path fill="none" stroke="#000000" d="M256.5,-180.1686C256.5,-180.1686 256.5,-205.5867 256.5,-205.5867"/>
<polygon fill="none" stroke="#000000" points="253.0001,-205.5867 256.5,-215.5867 260.0001,-205.5868 253.0001,-205.5867"/>
</g>
<!-- ParticleFilter -->
<g id="node6" class="node">
<title>ParticleFilter</title>
<g id="a_node6"><a xlink:href="../classes/ParticleFilter/" xlink:title="ParticleFilter" target="_top">
<polygon fill="none" stroke="#000000" points="281,-108 211,-108 211,-72 281,-72 281,-108"/>
<text text-anchor="middle" x="246" y="-87.5" font-family="Helvetica,sans-Serif" font-size="10.00" fill="#000000">ParticleFilter</text>
</a>
</g>
</g>
<!-- ParticleFilter&#45;&gt;ForwardSampler -->
<g id="edge5" class="edge">
<title>ParticleFilter&#45;&gt;ForwardSampler</title>
<path fill="none" stroke="#000000" d="M219.5,-108.1686C219.5,-108.1686 219.5,-133.5867 219.5,-133.5867"/>
<polygon fill="none" stroke="#000000" points="216.0001,-133.5867 219.5,-143.5867 223.0001,-133.5868 216.0001,-133.5867"/>
</g>
<!-- AuxiliaryParticleFilter -->
<g id="node7" class="node">
<title>AuxiliaryParticleFilter</title>
<g id="a_node7"><a xlink:href="../classes/AuxiliaryParticleFilter/" xlink:title="AuxiliaryParticleFilter" target="_top">
<polygon fill="none" stroke="#000000" points="407,-108 299,-108 299,-72 407,-72 407,-108"/>
<text text-anchor="middle" x="353" y="-87.5" font-family="Helvetica,sans-Serif" font-size="10.00" fill="#000000">AuxiliaryParticleFilter</text>
</a>
</g>
</g>
<!-- AuxiliaryParticleFilter&#45;&gt;ParticleFilter -->
<g id="edge9" class="edge">
<title>AuxiliaryParticleFilter&#45;&gt;ParticleFilter</title>
<path fill="none" stroke="#000000" d="M298.8731,-92C292.8602,-92 286.858,-92 281.1701,-92"/>
<path fill="none" stroke="#ffffff" d="M298.8731,-90C292.8602,-90 286.858,-90 281.1701,-90"/>
<path fill="none" stroke="#000000" d="M298.8731,-88C292.8602,-88 286.858,-88 281.1701,-88"/>
</g>
<!-- RaoBlackwellizedParticleFilter -->
<g id="node8" class="node">
<title>RaoBlackwellizedParticleFilter</title>
<g id="a_node8"><a xlink:href="../classes/RaoBlackwellizedParticleFilter/" xlink:title="RaoBlackwellizedParticleFilter" target="_top">
<polygon fill="none" stroke="#000000" points="573,-108 425,-108 425,-72 573,-72 573,-108"/>
<text text-anchor="middle" x="499" y="-87.5" font-family="Helvetica,sans-Serif" font-size="10.00" fill="#000000">RaoBlackwellizedParticleFilter</text>
</a>
</g>
</g>
<!-- RaoBlackwellizedParticleFilter&#45;&gt;AuxiliaryParticleFilter -->
<g id="edge10" class="edge">
<title>RaoBlackwellizedParticleFilter&#45;&gt;AuxiliaryParticleFilter</title>
<path fill="none" stroke="#000000" d="M424.7169,-92C418.7996,-92 412.8935,-92 407.1543,-92"/>
<path fill="none" stroke="#ffffff" d="M424.7169,-90C418.7996,-90 412.8935,-90 407.1543,-90"/>
<path fill="none" stroke="#000000" d="M424.7169,-88C418.7996,-88 412.8935,-88 407.1543,-88"/>
</g>
<!-- AliveParticleFilter -->
<g id="node9" class="node">
<title>AliveParticleFilter</title>
<g id="a_node9"><a xlink:href="../classes/AliveParticleFilter/" xlink:title="AliveParticleFilter" target="_top">
<polygon fill="none" stroke="#000000" points="232,-36 140,-36 140,0 232,0 232,-36"/>
<text text-anchor="middle" x="186" y="-15.5" font-family="Helvetica,sans-Serif" font-size="10.00" fill="#000000">AliveParticleFilter</text>
</a>
</g>
</g>
<!-- AliveParticleFilter&#45;&gt;ParticleFilter -->
<g id="edge7" class="edge">
<title>AliveParticleFilter&#45;&gt;ParticleFilter</title>
<path fill="none" stroke="#000000" d="M221.5,-36.1686C221.5,-36.1686 221.5,-61.5867 221.5,-61.5867"/>
<polygon fill="none" stroke="#000000" points="218.0001,-61.5867 221.5,-71.5867 225.0001,-61.5868 218.0001,-61.5867"/>
</g>
<!-- BootstrapParticleFilter -->
<g id="node10" class="node">
<title>BootstrapParticleFilter</title>
<g id="a_node10"><a xlink:href="../classes/BootstrapParticleFilter/" xlink:title="BootstrapParticleFilter" target="_top">
<polygon fill="none" stroke="#000000" points="363.5,-36 250.5,-36 250.5,0 363.5,0 363.5,-36"/>
<text text-anchor="middle" x="307" y="-15.5" font-family="Helvetica,sans-Serif" font-size="10.00" fill="#000000">BootstrapParticleFilter</text>
</a>
</g>
</g>
<!-- BootstrapParticleFilter&#45;&gt;ParticleFilter -->
<g id="edge6" class="edge">
<title>BootstrapParticleFilter&#45;&gt;ParticleFilter</title>
<path fill="none" stroke="#000000" d="M260.6667,-36.1686C260.6667,-36.1686 260.6667,-61.5867 260.6667,-61.5867"/>
<polygon fill="none" stroke="#000000" points="257.1668,-61.5867 260.6667,-71.5867 264.1668,-61.5868 257.1668,-61.5867"/>
</g>
<!-- ConditionalParticleFilter -->
<g id="node11" class="node">
<title>ConditionalParticleFilter</title>
<g id="a_node11"><a xlink:href="../classes/ConditionalParticleFilter/" xlink:title="ConditionalParticleFilter" target="_top">
<polygon fill="none" stroke="#000000" points="502,-36 382,-36 382,0 502,0 502,-36"/>
<text text-anchor="middle" x="442" y="-15.5" font-family="Helvetica,sans-Serif" font-size="10.00" fill="#000000">ConditionalParticleFilter</text>
</a>
</g>
</g>
<!-- ConditionalParticleFilter&#45;&gt;ParticleFilter -->
<g id="edge8" class="edge">
<title>ConditionalParticleFilter&#45;&gt;ParticleFilter</title>
<path fill="none" stroke="#000000" d="M394.5,-36.4218C394.5,-45.2791 394.5,-54 394.5,-54 394.5,-54 270.8333,-54 270.8333,-54 270.8333,-54 270.8333,-61.5782 270.8333,-61.5782"/>
<polygon fill="none" stroke="#000000" points="267.3334,-61.5781 270.8333,-71.5782 274.3334,-61.5782 267.3334,-61.5781"/>
</g>
</g>
</svg>
