<?xml version="1.0" encoding="UTF-8" standalone="no"?>
<!DOCTYPE svg PUBLIC "-//W3C//DTD SVG 1.1//EN"
 "http://www.w3.org/Graphics/SVG/1.1/DTD/svg11.dtd">
<!-- Generated by graphviz version 2.40.1 (20161225.0304)
 -->
<!-- Title: %3 Pages: 1 -->
<svg width="510pt" height="260pt"
 viewBox="0.00 0.00 510.00 260.00" xmlns="http://www.w3.org/2000/svg" xmlns:xlink="http://www.w3.org/1999/xlink">
<g id="graph0" class="graph" transform="scale(1 1) rotate(0) translate(4 256)">
<title>%3</title>
<polygon fill="#ffffff" stroke="transparent" points="-4,4 -4,-256 506,-256 506,4 -4,4"/>
<!-- Sampler -->
<g id="node1" class="node">
<title>Sampler</title>
<g id="a_node1"><a xlink:href="../classes/Sampler/" xlink:title="Sampler" target="_top">
<polygon fill="none" stroke="#000000" points="272,-252 218,-252 218,-216 272,-216 272,-252"/>
<text text-anchor="middle" x="245" y="-231.5" font-family="Helvetica,sans-Serif" font-size="10.00" fill="#000000">Sampler</text>
</a>
</g>
</g>
<!-- ForwardSampler -->
<g id="node2" class="node">
<title>ForwardSampler</title>
<g id="a_node2"><a xlink:href="../classes/ForwardSampler/" xlink:title="ForwardSampler" target="_top">
<polygon fill="none" stroke="#000000" points="233,-180 145,-180 145,-144 233,-144 233,-180"/>
<text text-anchor="middle" x="189" y="-159.5" font-family="Helvetica,sans-Serif" font-size="10.00" fill="#000000">ForwardSampler</text>
</a>
</g>
</g>
<!-- ForwardSampler&#45;&gt;Sampler -->
<g id="edge1" class="edge">
<title>ForwardSampler&#45;&gt;Sampler</title>
<path fill="none" stroke="#000000" d="M225.5,-180.1686C225.5,-180.1686 225.5,-205.5867 225.5,-205.5867"/>
<polygon fill="none" stroke="#000000" points="222.0001,-205.5867 225.5,-215.5867 229.0001,-205.5868 222.0001,-205.5867"/>
</g>
<!-- BidirectionalSampler -->
<g id="node3" class="node">
<title>BidirectionalSampler</title>
<g id="a_node3"><a xlink:href="../classes/BidirectionalSampler/" xlink:title="BidirectionalSampler" target="_top">
<polygon fill="none" stroke="#000000" points="189,-108 83,-108 83,-72 189,-72 189,-108"/>
<text text-anchor="middle" x="136" y="-87.5" font-family="Helvetica,sans-Serif" font-size="10.00" fill="#000000">BidirectionalSampler</text>
</a>
</g>
</g>
<!-- BidirectionalSampler&#45;&gt;ForwardSampler -->
<g id="edge2" class="edge">
<title>BidirectionalSampler&#45;&gt;ForwardSampler</title>
<path fill="none" stroke="#000000" d="M167,-108.1686C167,-108.1686 167,-133.5867 167,-133.5867"/>
<polygon fill="none" stroke="#000000" points="163.5001,-133.5867 167,-143.5867 170.5001,-133.5868 163.5001,-133.5867"/>
</g>
<!-- RandomAccessSampler -->
<g id="node4" class="node">
<title>RandomAccessSampler</title>
<g id="a_node4"><a xlink:href="../classes/RandomAccessSampler/" xlink:title="RandomAccessSampler" target="_top">
<polygon fill="none" stroke="#000000" points="122,-36 0,-36 0,0 122,0 122,-36"/>
<text text-anchor="middle" x="61" y="-15.5" font-family="Helvetica,sans-Serif" font-size="10.00" fill="#000000">RandomAccessSampler</text>
</a>
</g>
</g>
<!-- RandomAccessSampler&#45;&gt;BidirectionalSampler -->
<g id="edge3" class="edge">
<title>RandomAccessSampler&#45;&gt;BidirectionalSampler</title>
<path fill="none" stroke="#000000" d="M102.5,-36.1686C102.5,-36.1686 102.5,-61.5867 102.5,-61.5867"/>
<polygon fill="none" stroke="#000000" points="99.0001,-61.5867 102.5,-71.5867 106.0001,-61.5868 99.0001,-61.5867"/>
</g>
<!-- ImportanceSampler -->
<g id="node5" class="node">
<title>ImportanceSampler</title>
<g id="a_node5"><a xlink:href="../classes/ImportanceSampler/" xlink:title="ImportanceSampler" target="_top">
<polygon fill="none" stroke="#000000" points="353,-180 251,-180 251,-144 353,-144 353,-180"/>
<text text-anchor="middle" x="302" y="-159.5" font-family="Helvetica,sans-Serif" font-size="10.00" fill="#000000">ImportanceSampler</text>
</a>
</g>
</g>
<!-- ImportanceSampler&#45;&gt;Sampler -->
<g id="edge4" class="edge">
<title>ImportanceSampler&#45;&gt;Sampler</title>
<path fill="none" stroke="#000000" d="M261.5,-180.1686C261.5,-180.1686 261.5,-205.5867 261.5,-205.5867"/>
<polygon fill="none" stroke="#000000" points="258.0001,-205.5867 261.5,-215.5867 265.0001,-205.5868 258.0001,-205.5867"/>
</g>
<!-- ParticleFilter -->
<g id="node6" class="node">
<title>ParticleFilter</title>
<g id="a_node6"><a xlink:href="../classes/ParticleFilter/" xlink:title="ParticleFilter" target="_top">
<polygon fill="none" stroke="#000000" points="292,-108 222,-108 222,-72 292,-72 292,-108"/>
<text text-anchor="middle" x="257" y="-87.5" font-family="Helvetica,sans-Serif" font-size="10.00" fill="#000000">ParticleFilter</text>
</a>
</g>
</g>
<!-- ParticleFilter&#45;&gt;ForwardSampler -->
<g id="edge5" class="edge">
<title>ParticleFilter&#45;&gt;ForwardSampler</title>
<path fill="none" stroke="#000000" d="M227.5,-108.1686C227.5,-108.1686 227.5,-133.5867 227.5,-133.5867"/>
<polygon fill="none" stroke="#000000" points="224.0001,-133.5867 227.5,-143.5867 231.0001,-133.5868 224.0001,-133.5867"/>
</g>
<!-- BootstrapParticleFilter -->
<g id="node7" class="node">
<title>BootstrapParticleFilter</title>
<g id="a_node7"><a xlink:href="../classes/BootstrapParticleFilter/" xlink:title="BootstrapParticleFilter" target="_top">
<polygon fill="none" stroke="#000000" points="253.5,-36 140.5,-36 140.5,0 253.5,0 253.5,-36"/>
<text text-anchor="middle" x="197" y="-15.5" font-family="Helvetica,sans-Serif" font-size="10.00" fill="#000000">BootstrapParticleFilter</text>
</a>
</g>
</g>
<!-- BootstrapParticleFilter&#45;&gt;ParticleFilter -->
<g id="edge6" class="edge">
<title>BootstrapParticleFilter&#45;&gt;ParticleFilter</title>
<path fill="none" stroke="#000000" d="M237.75,-36.1686C237.75,-36.1686 237.75,-61.5867 237.75,-61.5867"/>
<polygon fill="none" stroke="#000000" points="234.2501,-61.5867 237.75,-71.5867 241.2501,-61.5868 234.2501,-61.5867"/>
</g>
<!-- AliveParticleFilter -->
<g id="node8" class="node">
<title>AliveParticleFilter</title>
<g id="a_node8"><a xlink:href="../classes/AliveParticleFilter/" xlink:title="AliveParticleFilter" target="_top">
<polygon fill="none" stroke="#000000" points="364,-36 272,-36 272,0 364,0 364,-36"/>
<text text-anchor="middle" x="318" y="-15.5" font-family="Helvetica,sans-Serif" font-size="10.00" fill="#000000">AliveParticleFilter</text>
</a>
</g>
</g>
<!-- AliveParticleFilter&#45;&gt;ParticleFilter -->
<g id="edge7" class="edge">
<title>AliveParticleFilter&#45;&gt;ParticleFilter</title>
<path fill="none" stroke="#000000" d="M282,-36.1686C282,-36.1686 282,-61.5867 282,-61.5867"/>
<polygon fill="none" stroke="#000000" points="278.5001,-61.5867 282,-71.5867 285.5001,-61.5868 278.5001,-61.5867"/>
</g>
<!-- ConditionalParticleFilter -->
<g id="node9" class="node">
<title>ConditionalParticleFilter</title>
<g id="a_node9"><a xlink:href="../classes/ConditionalParticleFilter/" xlink:title="ConditionalParticleFilter" target="_top">
<polygon fill="none" stroke="#000000" points="502,-36 382,-36 382,0 502,0 502,-36"/>
<text text-anchor="middle" x="442" y="-15.5" font-family="Helvetica,sans-Serif" font-size="10.00" fill="#000000">ConditionalParticleFilter</text>
</a>
</g>
</g>
<!-- ConditionalParticleFilter&#45;&gt;ParticleFilter -->
<g id="edge8" class="edge">
<title>ConditionalParticleFilter&#45;&gt;ParticleFilter</title>
<path fill="none" stroke="#000000" d="M442,-36.1686C442,-57.498 442,-90 442,-90 442,-90 302.2325,-90 302.2325,-90"/>
<polygon fill="none" stroke="#000000" points="302.2326,-86.5001 292.2325,-90 302.2325,-93.5001 302.2326,-86.5001"/>
</g>
</g>
</svg>
