<?xml version="1.0" encoding="UTF-8" standalone="no"?>
<!DOCTYPE svg PUBLIC "-//W3C//DTD SVG 1.1//EN"
 "http://www.w3.org/Graphics/SVG/1.1/DTD/svg11.dtd">
<!-- Generated by graphviz version 2.40.1 (20161225.0304)
 -->
<!-- Title: %3 Pages: 1 -->
<svg width="576pt" height="260pt"
 viewBox="0.00 0.00 575.50 260.00" xmlns="http://www.w3.org/2000/svg" xmlns:xlink="http://www.w3.org/1999/xlink">
<g id="graph0" class="graph" transform="scale(1 1) rotate(0) translate(4 256)">
<title>%3</title>
<polygon fill="#ffffff" stroke="transparent" points="-4,4 -4,-256 571.5,-256 571.5,4 -4,4"/>
<!-- Sampler -->
<g id="node1" class="node">
<title>Sampler</title>
<g id="a_node1"><a xlink:href="../classes/Sampler/" xlink:title="Sampler" target="_top">
<polygon fill="none" stroke="#000000" points="263,-252 209,-252 209,-216 263,-216 263,-252"/>
<text text-anchor="middle" x="236" y="-231.5" font-family="Helvetica,sans-Serif" font-size="10.00" fill="#000000">Sampler</text>
</a>
</g>
</g>
<!-- ForwardSampler -->
<g id="node2" class="node">
<title>ForwardSampler</title>
<g id="a_node2"><a xlink:href="../classes/ForwardSampler/" xlink:title="ForwardSampler" target="_top">
<polygon fill="none" stroke="#000000" points="224,-180 138,-180 138,-144 224,-144 224,-180"/>
<text text-anchor="middle" x="181" y="-159.5" font-family="Helvetica,sans-Serif" font-size="10.00" fill="#000000">ForwardSampler</text>
</a>
</g>
</g>
<!-- ForwardSampler&#45;&gt;Sampler -->
<g id="edge1" class="edge">
<title>ForwardSampler&#45;&gt;Sampler</title>
<path fill="none" stroke="#000000" d="M216.5,-180.1686C216.5,-180.1686 216.5,-205.5867 216.5,-205.5867"/>
<polygon fill="none" stroke="#000000" points="213.0001,-205.5867 216.5,-215.5867 220.0001,-205.5868 213.0001,-205.5867"/>
</g>
<!-- BidirectionalSampler -->
<g id="node3" class="node">
<title>BidirectionalSampler</title>
<g id="a_node3"><a xlink:href="../classes/BidirectionalSampler/" xlink:title="BidirectionalSampler" target="_top">
<polygon fill="none" stroke="#000000" points="181,-108 77,-108 77,-72 181,-72 181,-108"/>
<text text-anchor="middle" x="129" y="-87.5" font-family="Helvetica,sans-Serif" font-size="10.00" fill="#000000">BidirectionalSampler</text>
</a>
</g>
</g>
<!-- BidirectionalSampler&#45;&gt;ForwardSampler -->
<g id="edge2" class="edge">
<title>BidirectionalSampler&#45;&gt;ForwardSampler</title>
<path fill="none" stroke="#000000" d="M159.5,-108.1686C159.5,-108.1686 159.5,-133.5867 159.5,-133.5867"/>
<polygon fill="none" stroke="#000000" points="156.0001,-133.5867 159.5,-143.5867 163.0001,-133.5868 156.0001,-133.5867"/>
</g>
<!-- RandomAccessSampler -->
<g id="node4" class="node">
<title>RandomAccessSampler</title>
<g id="a_node4"><a xlink:href="../classes/RandomAccessSampler/" xlink:title="RandomAccessSampler" target="_top">
<polygon fill="none" stroke="#000000" points="120,-36 0,-36 0,0 120,0 120,-36"/>
<text text-anchor="middle" x="60" y="-15.5" font-family="Helvetica,sans-Serif" font-size="10.00" fill="#000000">RandomAccessSampler</text>
</a>
</g>
</g>
<!-- RandomAccessSampler&#45;&gt;BidirectionalSampler -->
<g id="edge3" class="edge">
<title>RandomAccessSampler&#45;&gt;BidirectionalSampler</title>
<path fill="none" stroke="#000000" d="M98.5,-36.1686C98.5,-36.1686 98.5,-61.5867 98.5,-61.5867"/>
<polygon fill="none" stroke="#000000" points="95.0001,-61.5867 98.5,-71.5867 102.0001,-61.5868 95.0001,-61.5867"/>
</g>
<!-- ImportanceSampler -->
<g id="node5" class="node">
<title>ImportanceSampler</title>
<g id="a_node5"><a xlink:href="../classes/ImportanceSampler/" xlink:title="ImportanceSampler" target="_top">
<polygon fill="none" stroke="#000000" points="341.5,-180 242.5,-180 242.5,-144 341.5,-144 341.5,-180"/>
<text text-anchor="middle" x="292" y="-159.5" font-family="Helvetica,sans-Serif" font-size="10.00" fill="#000000">ImportanceSampler</text>
</a>
</g>
</g>
<!-- ImportanceSampler&#45;&gt;Sampler -->
<g id="edge4" class="edge">
<title>ImportanceSampler&#45;&gt;Sampler</title>
<path fill="none" stroke="#000000" d="M252.75,-180.1686C252.75,-180.1686 252.75,-205.5867 252.75,-205.5867"/>
<polygon fill="none" stroke="#000000" points="249.2501,-205.5867 252.75,-215.5867 256.2501,-205.5868 249.2501,-205.5867"/>
</g>
<!-- ParticleFilter -->
<g id="node6" class="node">
<title>ParticleFilter</title>
<g id="a_node6"><a xlink:href="../classes/ParticleFilter/" xlink:title="ParticleFilter" target="_top">
<polygon fill="none" stroke="#000000" points="277.5,-108 208.5,-108 208.5,-72 277.5,-72 277.5,-108"/>
<text text-anchor="middle" x="243" y="-87.5" font-family="Helvetica,sans-Serif" font-size="10.00" fill="#000000">ParticleFilter</text>
</a>
</g>
</g>
<!-- ParticleFilter&#45;&gt;ForwardSampler -->
<g id="edge5" class="edge">
<title>ParticleFilter&#45;&gt;ForwardSampler</title>
<path fill="none" stroke="#000000" d="M216.25,-108.1686C216.25,-108.1686 216.25,-133.5867 216.25,-133.5867"/>
<polygon fill="none" stroke="#000000" points="212.7501,-133.5867 216.25,-143.5867 219.7501,-133.5868 212.7501,-133.5867"/>
</g>
<!-- AuxiliaryParticleFilter -->
<g id="node7" class="node">
<title>AuxiliaryParticleFilter</title>
<g id="a_node7"><a xlink:href="../classes/AuxiliaryParticleFilter/" xlink:title="AuxiliaryParticleFilter" target="_top">
<polygon fill="none" stroke="#000000" points="402.5,-108 295.5,-108 295.5,-72 402.5,-72 402.5,-108"/>
<text text-anchor="middle" x="349" y="-87.5" font-family="Helvetica,sans-Serif" font-size="10.00" fill="#000000">AuxiliaryParticleFilter</text>
</a>
</g>
</g>
<!-- AuxiliaryParticleFilter&#45;&gt;ParticleFilter -->
<g id="edge9" class="edge">
<title>AuxiliaryParticleFilter&#45;&gt;ParticleFilter</title>
<path fill="none" stroke="#000000" d="M295.3789,-92C289.3196,-92 283.2711,-92 277.5502,-92"/>
<path fill="none" stroke="#ffffff" d="M295.3789,-90C289.3196,-90 283.2711,-90 277.5502,-90"/>
<path fill="none" stroke="#000000" d="M295.3789,-88C289.3196,-88 283.2711,-88 277.5502,-88"/>
</g>
<!-- RaoBlackwellizedParticleFilter -->
<g id="node8" class="node">
<title>RaoBlackwellizedParticleFilter</title>
<g id="a_node8"><a xlink:href="../classes/RaoBlackwellizedParticleFilter/" xlink:title="RaoBlackwellizedParticleFilter" target="_top">
<polygon fill="none" stroke="#000000" points="567.5,-108 420.5,-108 420.5,-72 567.5,-72 567.5,-108"/>
<text text-anchor="middle" x="494" y="-87.5" font-family="Helvetica,sans-Serif" font-size="10.00" fill="#000000">RaoBlackwellizedParticleFilter</text>
</a>
</g>
</g>
<!-- RaoBlackwellizedParticleFilter&#45;&gt;AuxiliaryParticleFilter -->
<g id="edge10" class="edge">
<title>RaoBlackwellizedParticleFilter&#45;&gt;AuxiliaryParticleFilter</title>
<path fill="none" stroke="#000000" d="M420.2256,-92C414.3489,-92 408.4833,-92 402.7834,-92"/>
<path fill="none" stroke="#ffffff" d="M420.2256,-90C414.3489,-90 408.4833,-90 402.7834,-90"/>
<path fill="none" stroke="#000000" d="M420.2256,-88C414.3489,-88 408.4833,-88 402.7834,-88"/>
</g>
<!-- AliveParticleFilter -->
<g id="node9" class="node">
<title>AliveParticleFilter</title>
<g id="a_node9"><a xlink:href="../classes/AliveParticleFilter/" xlink:title="AliveParticleFilter" target="_top">
<polygon fill="none" stroke="#000000" points="229.5,-36 138.5,-36 138.5,0 229.5,0 229.5,-36"/>
<text text-anchor="middle" x="184" y="-15.5" font-family="Helvetica,sans-Serif" font-size="10.00" fill="#000000">AliveParticleFilter</text>
</a>
</g>
</g>
<!-- AliveParticleFilter&#45;&gt;ParticleFilter -->
<g id="edge7" class="edge">
<title>AliveParticleFilter&#45;&gt;ParticleFilter</title>
<path fill="none" stroke="#000000" d="M219,-36.1686C219,-36.1686 219,-61.5867 219,-61.5867"/>
<polygon fill="none" stroke="#000000" points="215.5001,-61.5867 219,-71.5867 222.5001,-61.5868 215.5001,-61.5867"/>
</g>
<!-- BootstrapParticleFilter -->
<g id="node10" class="node">
<title>BootstrapParticleFilter</title>
<g id="a_node10"><a xlink:href="../classes/BootstrapParticleFilter/" xlink:title="BootstrapParticleFilter" target="_top">
<polygon fill="none" stroke="#000000" points="358.5,-36 247.5,-36 247.5,0 358.5,0 358.5,-36"/>
<text text-anchor="middle" x="303" y="-15.5" font-family="Helvetica,sans-Serif" font-size="10.00" fill="#000000">BootstrapParticleFilter</text>
</a>
</g>
</g>
<!-- BootstrapParticleFilter&#45;&gt;ParticleFilter -->
<g id="edge6" class="edge">
<title>BootstrapParticleFilter&#45;&gt;ParticleFilter</title>
<path fill="none" stroke="#000000" d="M257.5,-36.1686C257.5,-36.1686 257.5,-61.5867 257.5,-61.5867"/>
<polygon fill="none" stroke="#000000" points="254.0001,-61.5867 257.5,-71.5867 261.0001,-61.5868 254.0001,-61.5867"/>
</g>
<!-- ConditionalParticleFilter -->
<g id="node11" class="node">
<title>ConditionalParticleFilter</title>
<g id="a_node11"><a xlink:href="../classes/ConditionalParticleFilter/" xlink:title="ConditionalParticleFilter" target="_top">
<polygon fill="none" stroke="#000000" points="495,-36 377,-36 377,0 495,0 495,-36"/>
<text text-anchor="middle" x="436" y="-15.5" font-family="Helvetica,sans-Serif" font-size="10.00" fill="#000000">ConditionalParticleFilter</text>
</a>
</g>
</g>
<!-- ConditionalParticleFilter&#45;&gt;ParticleFilter -->
<g id="edge8" class="edge">
<title>ConditionalParticleFilter&#45;&gt;ParticleFilter</title>
<path fill="none" stroke="#000000" d="M389.75,-36.4218C389.75,-45.2791 389.75,-54 389.75,-54 389.75,-54 267.5,-54 267.5,-54 267.5,-54 267.5,-61.5782 267.5,-61.5782"/>
<polygon fill="none" stroke="#000000" points="264.0001,-61.5781 267.5,-71.5782 271.0001,-61.5782 264.0001,-61.5781"/>
</g>
</g>
</svg>
