<?xml version="1.0" encoding="UTF-8" standalone="no"?>
<!DOCTYPE svg PUBLIC "-//W3C//DTD SVG 1.1//EN"
 "http://www.w3.org/Graphics/SVG/1.1/DTD/svg11.dtd">
<!-- Generated by graphviz version 2.40.1 (20161225.0304)
 -->
<!-- Title: %3 Pages: 1 -->
<svg width="362pt" height="116pt"
 viewBox="0.00 0.00 362.00 116.00" xmlns="http://www.w3.org/2000/svg" xmlns:xlink="http://www.w3.org/1999/xlink">
<g id="graph0" class="graph" transform="scale(1 1) rotate(0) translate(4 112)">
<title>%3</title>
<polygon fill="#ffffff" stroke="transparent" points="-4,4 -4,-112 358,-112 358,4 -4,4"/>
<!-- Event -->
<g id="node1" class="node">
<title>Event</title>
<g id="a_node1"><a xlink:href="../classes/Event/" xlink:title="Event" target="_top">
<polygon fill="none" stroke="#000000" points="209,-108 155,-108 155,-72 209,-72 209,-108"/>
<text text-anchor="middle" x="182" y="-87.5" font-family="Helvetica,sans-Serif" font-size="10.00" fill="#000000">Event</text>
</a>
</g>
</g>
<!-- SimulateEvent -->
<g id="node2" class="node">
<title>SimulateEvent</title>
<g id="a_node2"><a xlink:href="../classes/SimulateEvent/" xlink:title="SimulateEvent" target="_top">
<polygon fill="none" stroke="#000000" points="78,-36 0,-36 0,0 78,0 78,-36"/>
<text text-anchor="middle" x="39" y="-15.5" font-family="Helvetica,sans-Serif" font-size="10.00" fill="#000000">SimulateEvent</text>
</a>
</g>
</g>
<!-- SimulateEvent&#45;&gt;Event -->
<g id="edge1" class="edge">
<title>SimulateEvent&#45;&gt;Event</title>
<path fill="none" stroke="#000000" d="M39,-36.1686C39,-57.498 39,-90 39,-90 39,-90 144.7662,-90 144.7662,-90"/>
<polygon fill="none" stroke="#000000" points="144.7662,-93.5001 154.7662,-90 144.7662,-86.5001 144.7662,-93.5001"/>
</g>
<!-- ObserveEvent -->
<g id="node3" class="node">
<title>ObserveEvent</title>
<g id="a_node3"><a xlink:href="../classes/ObserveEvent/" xlink:title="ObserveEvent" target="_top">
<polygon fill="none" stroke="#000000" points="173.5,-36 96.5,-36 96.5,0 173.5,0 173.5,-36"/>
<text text-anchor="middle" x="135" y="-15.5" font-family="Helvetica,sans-Serif" font-size="10.00" fill="#000000">ObserveEvent</text>
</a>
</g>
</g>
<!-- ObserveEvent&#45;&gt;Event -->
<g id="edge2" class="edge">
<title>ObserveEvent&#45;&gt;Event</title>
<path fill="none" stroke="#000000" d="M164.25,-36.1686C164.25,-36.1686 164.25,-61.5867 164.25,-61.5867"/>
<polygon fill="none" stroke="#000000" points="160.7501,-61.5867 164.25,-71.5867 167.7501,-61.5868 160.7501,-61.5867"/>
</g>
<!-- AssumeEvent -->
<g id="node4" class="node">
<title>AssumeEvent</title>
<g id="a_node4"><a xlink:href="../classes/AssumeEvent/" xlink:title="AssumeEvent" target="_top">
<polygon fill="none" stroke="#000000" points="268,-36 192,-36 192,0 268,0 268,-36"/>
<text text-anchor="middle" x="230" y="-15.5" font-family="Helvetica,sans-Serif" font-size="10.00" fill="#000000">AssumeEvent</text>
</a>
</g>
</g>
<!-- AssumeEvent&#45;&gt;Event -->
<g id="edge3" class="edge">
<title>AssumeEvent&#45;&gt;Event</title>
<path fill="none" stroke="#000000" d="M200.5,-36.1686C200.5,-36.1686 200.5,-61.5867 200.5,-61.5867"/>
<polygon fill="none" stroke="#000000" points="197.0001,-61.5867 200.5,-71.5867 204.0001,-61.5868 197.0001,-61.5867"/>
</g>
<!-- FactorEvent -->
<g id="node5" class="node">
<title>FactorEvent</title>
<g id="a_node5"><a xlink:href="../classes/FactorEvent/" xlink:title="FactorEvent" target="_top">
<polygon fill="none" stroke="#000000" points="354,-36 286,-36 286,0 354,0 354,-36"/>
<text text-anchor="middle" x="320" y="-15.5" font-family="Helvetica,sans-Serif" font-size="10.00" fill="#000000">FactorEvent</text>
</a>
</g>
</g>
<!-- FactorEvent&#45;&gt;Event -->
<g id="edge4" class="edge">
<title>FactorEvent&#45;&gt;Event</title>
<path fill="none" stroke="#000000" d="M320,-36.1686C320,-57.498 320,-90 320,-90 320,-90 219.2644,-90 219.2644,-90"/>
<polygon fill="none" stroke="#000000" points="219.2644,-86.5001 209.2644,-90 219.2643,-93.5001 219.2644,-86.5001"/>
</g>
</g>
</svg>
