<?xml version="1.0" encoding="UTF-8" standalone="no"?>
<!DOCTYPE svg PUBLIC "-//W3C//DTD SVG 1.1//EN"
 "http://www.w3.org/Graphics/SVG/1.1/DTD/svg11.dtd">
<!-- Generated by graphviz version 2.40.1 (20161225.0304)
 -->
<!-- Title: %3 Pages: 1 -->
<svg width="194pt" height="116pt"
 viewBox="0.00 0.00 194.00 116.00" xmlns="http://www.w3.org/2000/svg" xmlns:xlink="http://www.w3.org/1999/xlink">
<g id="graph0" class="graph" transform="scale(1 1) rotate(0) translate(4 112)">
<title>%3</title>
<polygon fill="#ffffff" stroke="transparent" points="-4,4 -4,-112 190,-112 190,4 -4,4"/>
<!-- Particle -->
<g id="node1" class="node">
<title>Particle</title>
<g id="a_node1"><a xlink:href="../classes/Particle/" xlink:title="Particle" target="_top">
<polygon fill="none" stroke="#000000" points="126,-108 72,-108 72,-72 126,-72 126,-108"/>
<text text-anchor="middle" x="99" y="-87.5" font-family="Helvetica,sans-Serif" font-size="10.00" fill="#000000">Particle</text>
</a>
</g>
</g>
<!-- ConditionalParticle -->
<g id="node2" class="node">
<title>ConditionalParticle</title>
<g id="a_node2"><a xlink:href="../classes/ConditionalParticle/" xlink:title="ConditionalParticle" target="_top">
<polygon fill="none" stroke="#000000" points="96,-36 0,-36 0,0 96,0 96,-36"/>
<text text-anchor="middle" x="48" y="-15.5" font-family="Helvetica,sans-Serif" font-size="10.00" fill="#000000">ConditionalParticle</text>
</a>
</g>
</g>
<!-- ConditionalParticle&#45;&gt;Particle -->
<g id="edge1" class="edge">
<title>ConditionalParticle&#45;&gt;Particle</title>
<path fill="none" stroke="#000000" d="M84,-36.1686C84,-36.1686 84,-61.5867 84,-61.5867"/>
<polygon fill="none" stroke="#000000" points="80.5001,-61.5867 84,-71.5867 87.5001,-61.5868 80.5001,-61.5867"/>
</g>
<!-- MoveParticle -->
<g id="node3" class="node">
<title>MoveParticle</title>
<g id="a_node3"><a xlink:href="../classes/MoveParticle/" xlink:title="MoveParticle" target="_top">
<polygon fill="none" stroke="#000000" points="186,-36 114,-36 114,0 186,0 186,-36"/>
<text text-anchor="middle" x="150" y="-15.5" font-family="Helvetica,sans-Serif" font-size="10.00" fill="#000000">MoveParticle</text>
</a>
</g>
</g>
<!-- MoveParticle&#45;&gt;Particle -->
<g id="edge2" class="edge">
<title>MoveParticle&#45;&gt;Particle</title>
<path fill="none" stroke="#000000" d="M120,-36.1686C120,-36.1686 120,-61.5867 120,-61.5867"/>
<polygon fill="none" stroke="#000000" points="116.5001,-61.5867 120,-71.5867 123.5001,-61.5868 116.5001,-61.5867"/>
</g>
</g>
</svg>
